<?xml version="1.0" encoding="UTF-8"?>
<svg id="Calque_2" data-name="Calque 2" xmlns="http://www.w3.org/2000/svg" viewBox="0 0 131.95 57.86">
  <defs>
    <style>
      .cls-1 {
        fill: #98dadc;
      }
    </style>
  </defs>
  <g id="Maquette">
    <circle class="cls-1" cx="44.03" cy="12.48" r="3.94"/>
    <path class="cls-1" d="m44.5,56.3H11.79c-6.5,0-11.79-5.29-11.79-11.79V11.79C0,5.29,5.29,0,11.79,0h32.71c6.5,0,11.79,5.29,11.79,11.79v32.71c0,6.5-5.29,11.79-11.79,11.79ZM11.79,3.94c-4.33,0-7.86,3.52-7.86,7.86v32.71c0,4.33,3.52,7.86,7.86,7.86h32.71c4.33,0,7.86-3.52,7.86-7.86V11.79c0-4.33-3.52-7.86-7.86-7.86H11.79Z"/>
    <path class="cls-1" d="m29.1,42.59h-.98c-7.33,0-13.29-5.96-13.29-13.29s5.96-13.29,13.29-13.29h.98c7.33,0,13.29,5.96,13.29,13.29s-5.96,13.29-13.29,13.29Zm-.98-22.64c-5.16,0-9.35,4.19-9.35,9.35s4.19,9.35,9.35,9.35h.98c5.16,0,9.35-4.19,9.35-9.35s-4.19-9.35-9.35-9.35h-.98Z"/>
    <path class="cls-1" d="m115.99,18.55c-.23-.12-.45-.25-.66-.38-.62-.41-1.19-.89-1.7-1.44-1.27-1.45-1.74-2.92-1.91-3.94h0c-.15-.85-.09-1.41-.08-1.41h-5.76v22.28c0,.3,0,.59-.01.89,0,.04,0,.07,0,.11,0,.02,0,.03,0,.05h0c-.12,1.64-1.05,3.09-2.46,3.9-.73.41-1.55.63-2.38.63-2.68,0-4.86-2.19-4.86-4.89s2.18-4.89,4.86-4.89c.51,0,1.01.08,1.5.24v-5.87c-2.96-.38-5.95.49-8.24,2.41-.99.86-1.83,1.89-2.47,3.04-.24.42-1.16,2.1-1.27,4.84-.07,1.55.4,3.16.62,3.83h0c.14.41.68,1.74,1.56,2.87.71.9,1.55,1.7,2.5,2.35h0s.01,0,.01,0c2.79,1.9,5.88,1.77,5.88,1.77.54-.02,2.33,0,4.37-.97,2.26-1.07,3.55-2.66,3.55-2.66.82-.95,1.47-2.04,1.93-3.21.52-1.37.7-3.01.7-3.67v-11.82c.07.04,1,.66,1,.66,0,0,1.34.86,3.43,1.42,1.5.4,3.52.48,3.52.48v-5.72c-.71.08-2.15-.15-3.62-.88Z"/>
    <path class="cls-1" d="m103.55,57.86c-15.66,0-28.4-12.74-28.4-28.4S87.89,1.06,103.55,1.06s28.4,12.74,28.4,28.4-12.74,28.4-28.4,28.4Zm0-53.42c-13.8,0-25.02,11.22-25.02,25.02s11.22,25.02,25.02,25.02,25.02-11.22,25.02-25.02-11.22-25.02-25.02-25.02Z"/>
  </g>
</svg>