<?xml version="1.0" encoding="UTF-8"?>
<svg id="Calque_2" data-name="Calque 2" xmlns="http://www.w3.org/2000/svg" viewBox="0 0 164.33 29.11">
  <defs>
    <style>
      .cls-1 {
        fill: #b194cc;
      }
    </style>
  </defs>
  <g id="Maquette">
    <g>
      <path class="cls-1" d="m14.27,17.13c0-.32-.12-.56-.37-.71-.25-.15-.65-.25-1.21-.31-2.47-.26-4.55-.63-6.25-1.1-1.7-.47-2.98-1.2-3.83-2.2-.85-1-1.28-2.47-1.28-4.4,0-1.15.21-2.22.64-3.21.42-1,1.17-1.87,2.22-2.62,1.06-.75,2.53-1.33,4.42-1.74,1.89-.41,4.31-.62,7.24-.62s5.55.13,7.49.38,3.43.61,4.49,1.08c1.06.47,1.8,1.02,2.22,1.65s.64,1.31.64,2.05c0,1.15-.32,1.99-.95,2.53-.63.55-1.34.81-2.14.81-.71,0-1.37-.07-2-.22s-1.25-.31-1.87-.48c-.62-.18-1.25-.33-1.92-.46-.66-.13-1.39-.2-2.18-.2-.5,0-.85.08-1.06.24-.21.16-.31.39-.31.68,0,.24.05.42.16.55.1.13.26.24.48.31.22.07.52.14.9.2,2.47.29,4.6.73,6.41,1.3s3.18,1.47,4.14,2.69c.95,1.22,1.43,2.97,1.43,5.26s-.53,4.34-1.58,5.88c-1.06,1.54-2.8,2.69-5.24,3.46-2.44.76-5.72,1.15-9.86,1.15-3.82,0-6.83-.29-9.05-.86-2.22-.57-3.78-1.39-4.69-2.47-.91-1.07-1.36-2.36-1.36-3.85,0-1.06.18-2.02.55-2.89.37-.86.87-1.56,1.52-2.09.65-.53,1.42-.79,2.33-.79.85,0,1.63.1,2.33.29.71.19,1.37.42,1.98.68.62.26,1.25.5,1.89.7.65.21,1.36.31,2.16.31.44,0,.8-.08,1.08-.24.28-.16.42-.41.42-.73Z"/>
      <path class="cls-1" d="m49.76,16.21c-.35,0-.62.15-.79.44-.18.29-.26.72-.26,1.28,0,.41.04.83.11,1.25.07.43.15.87.24,1.32s.17.93.24,1.43c.07.5.11,1.09.11,1.76,0,1.09-.19,2.05-.57,2.89s-1.04,1.47-1.98,1.89c-.94.43-2.29.64-4.05.64-2.11,0-3.83-.19-5.15-.55-1.32-.37-2.34-.97-3.06-1.8-.72-.84-1.21-1.96-1.47-3.37-.15-.76-.26-1.53-.33-2.29-.07-.76-.12-1.55-.13-2.36s0-1.61.04-2.4c.04-.79.11-1.55.2-2.29.09-.76.2-1.54.33-2.34.13-.79.28-1.58.44-2.38.16-.79.35-1.57.57-2.33.22-.76.48-1.51.77-2.25.41-1.17.95-2.1,1.61-2.8s1.51-1.18,2.55-1.48c1.04-.29,2.36-.44,3.94-.44,1.14,0,2.11.1,2.91.31.79.21,1.42.53,1.87.97.45.44.75.98.9,1.63s.16,1.42.04,2.33c-.03,1-.03,1.81,0,2.42s.16,1.05.4,1.3.57.37,1.01.37.79-.11,1.06-.33c.26-.22.49-.65.68-1.28s.39-1.5.6-2.62c.09-.91.29-1.67.59-2.29.31-.62.74-1.14,1.3-1.56.56-.43,1.28-.74,2.16-.95.88-.21,1.97-.31,3.26-.31,1.91,0,3.38.15,4.43.46,1.04.31,1.78.87,2.2,1.7s.64,1.95.64,3.39-.16,2.65-.46,3.54c-.31.9-.76,1.53-1.36,1.89-.6.37-1.3.55-2.09.55-.2,0-.52,0-.95-.02-.43-.01-.76-.02-.99-.02-.2,0-.4.02-.59.07-.19.04-.34.12-.44.22-.1.1-.19.21-.26.33s-.11.28-.11.48c0,.29.13.54.4.75.26.21.6.31,1.01.31.24,0,.46,0,.68-.02.22-.01.44-.03.66-.04.22-.02.4-.02.55-.02,1.14,0,2.12.3,2.93.9.81.6,1.43,1.48,1.87,2.62.44,1.14.66,2.58.66,4.31,0,2-.29,3.55-.86,4.67-.57,1.12-1.49,1.89-2.75,2.33-1.26.44-2.91.66-4.93.66-1.85,0-3.41-.22-4.69-.66-1.28-.44-2.25-1.19-2.93-2.25-.68-1.05-1.04-2.52-1.1-4.4,0-1.2-.04-2.17-.13-2.91-.09-.73-.21-1.3-.37-1.7-.16-.4-.33-.66-.51-.79-.18-.13-.38-.2-.62-.2Z"/>
      <path class="cls-1" d="m87.72,0c3.05,0,5.61.27,7.68.81,2.07.54,3.74,1.39,5,2.53,1.26,1.15,2.23,2.63,2.91,4.47.67,1.83,1.14,4.06,1.41,6.67.18.76.33,1.49.46,2.18.13.69.24,1.34.31,1.96.07.62.13,1.22.18,1.81.04.59.05,1.16.02,1.72-.03.56-.09,1.13-.18,1.72-.18,1.12-.57,2.07-1.19,2.86-.62.79-1.57,1.38-2.86,1.76-1.29.38-2.99.57-5.11.57-1.82,0-3.3-.21-4.45-.62-1.14-.41-1.96-.98-2.44-1.72s-.73-1.57-.73-2.51c0-.56,0-1.04.02-1.45s.04-.78.07-1.1c.03-.32.06-.62.09-.88.03-.26.06-.53.09-.81.03-.28.04-.56.04-.86,0-.32-.04-.61-.11-.86-.07-.25-.21-.44-.4-.57-.19-.13-.46-.2-.81-.2s-.63.07-.84.2c-.2.13-.35.32-.42.57-.07.25-.11.53-.11.86,0,.29,0,.58.02.86.01.28.04.55.07.81.03.26.06.56.09.88.03.32.05.69.07,1.1s.02.9.02,1.45c0,.94-.24,1.78-.71,2.51s-1.26,1.31-2.38,1.72c-1.12.41-2.61.62-4.49.62-2.11,0-3.82-.19-5.11-.57-1.29-.38-2.25-.97-2.86-1.76s-1.01-1.75-1.19-2.86c-.06-.59-.11-1.16-.15-1.72-.04-.56-.04-1.13,0-1.72.04-.59.1-1.19.18-1.81.07-.62.18-1.27.31-1.96.13-.69.29-1.41.46-2.18.29-2.61.78-4.84,1.45-6.67.67-1.84,1.65-3.32,2.93-4.47,1.28-1.15,2.94-1.99,5-2.53,2.05-.54,4.61-.81,7.66-.81Zm0,11.23c1.14,0,1.89-.07,2.22-.2.34-.13.51-.48.51-1.03,0-.62-.24-1.03-.7-1.23-.47-.21-1.15-.31-2.03-.31s-1.56.1-2.03.31c-.47.21-.71.62-.71,1.23,0,.56.17.9.51,1.03.34.13,1.08.2,2.22.2Z"/>
      <path class="cls-1" d="m127.65,15.02c0,.32.07.72.2,1.19.13.47.29,1.01.46,1.63.18.62.35,1.23.53,1.85.18.62.32,1.23.44,1.83.12.6.18,1.17.18,1.7,0,1.03-.21,1.92-.62,2.67-.41.75-1.03,1.36-1.87,1.85-.84.48-1.86.84-3.06,1.06-1.2.22-2.61.33-4.23.33s-2.99-.12-4.21-.35c-1.22-.24-2.24-.59-3.06-1.06-.82-.47-1.45-1.08-1.87-1.83-.43-.75-.64-1.64-.64-2.67,0-.53.06-1.09.18-1.7.12-.6.26-1.21.44-1.83s.35-1.23.53-1.85c.18-.62.33-1.16.46-1.63.13-.47.2-.86.2-1.19,0-.38-.05-.68-.16-.9s-.25-.37-.44-.44c-.19-.07-.4-.11-.64-.11-.26,0-.51,0-.75.02-.24.02-.45.03-.64.05-.19.01-.37.02-.55.02-.47,0-.9-.14-1.3-.42-.4-.28-.7-.75-.92-1.41s-.33-1.59-.33-2.8c0-1.76.2-3.22.62-4.36.41-1.14,1.12-2.04,2.14-2.68,1.01-.65,2.4-1.1,4.16-1.36,1.76-.26,4.02-.4,6.78-.4s5.03.13,6.8.4c1.78.26,3.16.72,4.16,1.36,1,.65,1.7,1.54,2.11,2.68.41,1.15.62,2.6.62,4.36,0,1.2-.12,2.13-.35,2.8-.24.66-.54,1.13-.9,1.41s-.79.42-1.25.42c-.18,0-.37,0-.59-.02-.22-.02-.43-.03-.64-.05-.21-.01-.46-.02-.75-.02-.26,0-.48.04-.66.11-.18.07-.32.22-.42.44s-.15.52-.15.9Z"/>
      <path class="cls-1" d="m149.45,29.11c-2.97,0-5.39-.1-7.27-.31-1.88-.2-3.35-.53-4.4-.97-1.06-.44-1.84-1.03-2.33-1.76-.5-.73-.87-1.61-1.1-2.64-.15-.76-.25-1.53-.31-2.31-.06-.78-.1-1.57-.13-2.38-.03-.81-.02-1.61.04-2.4.06-.79.13-1.55.22-2.29.09-.76.2-1.54.33-2.34.13-.79.28-1.58.44-2.38.16-.79.35-1.57.57-2.33.22-.76.46-1.51.73-2.25.35-.88.76-1.62,1.21-2.22s1.12-1.08,1.98-1.43c.87-.35,2.06-.61,3.57-.77,1.51-.16,3.43-.24,5.75-.24,3.26,0,5.81.06,7.64.18s3.19.34,4.07.68c.88.34,1.45.81,1.7,1.41.25.6.37,1.36.37,2.27,0,.85-.1,1.56-.29,2.11s-.48.98-.86,1.28c-.38.29-.9.44-1.54.44-1.06-.03-1.95-.1-2.69-.2-.73-.1-1.44-.2-2.11-.31-.68-.1-1.45-.15-2.33-.15-.29,0-.55.04-.77.11-.22.07-.4.19-.53.35-.13.16-.2.41-.2.73,0,.29.11.54.33.73.22.19.58.29,1.08.29.71,0,1.34-.02,1.92-.07.57-.04,1.12-.11,1.65-.2s1.06-.15,1.59-.2c.53-.04,1.1-.07,1.72-.07.88,0,1.51.25,1.87.75.37.5.55,1.31.55,2.42,0,.85-.19,1.54-.57,2.07-.38.53-1.03.79-1.94.79-.53,0-1.04-.02-1.54-.05-.5-.03-1.03-.06-1.59-.09-.56-.03-1.14-.06-1.74-.09-.6-.03-1.25-.04-1.96-.04-.5,0-.86.1-1.08.29-.22.19-.33.45-.33.77,0,.24.06.43.18.6.12.16.28.27.48.33.2.06.43.09.66.09.94,0,1.78-.05,2.53-.15.75-.1,1.56-.21,2.44-.33.88-.12,1.97-.17,3.26-.17.79,0,1.45.16,1.98.48.53.32.93.86,1.21,1.63.28.76.42,1.82.42,3.17,0,1.47-.18,2.67-.55,3.61s-1.06,1.66-2.07,2.16c-1.01.5-2.5.86-4.47,1.08-1.97.22-4.57.33-7.79.33Z"/>
    </g>
  </g>
</svg>