<?xml version="1.0" encoding="UTF-8"?>
<svg id="Calque_2" data-name="Calque 2" xmlns="http://www.w3.org/2000/svg" viewBox="0 0 137.86 381.47">
  <defs>
    <style>
      .cls-1 {
        stroke-width: 1.65px;
      }

      .cls-1, .cls-2 {
        fill: none;
        stroke: #222;
        stroke-miterlimit: 10;
      }

      .cls-3 {
        fill: #e6e6e6;
      }

      .cls-4 {
        fill: #f3d02f;
      }

      .cls-5 {
        fill: #ba6370;
      }

      .cls-6 {
        fill: #b194cc;
      }

      .cls-7 {
        fill: #222;
      }

      .cls-2 {
        stroke-width: 1.84px;
      }

      .cls-8 {
        fill: #e3e3e3;
        font-family: HiraKakuStdN-W8-83pv-RKSJ-H, 'Hiragino Kaku Gothic StdN';
        font-size: 3.64px;
      }
    </style>
  </defs>
  <g id="Maquette">
    <polygon class="cls-4" points="85.93 24.97 96.79 0 96.55 27.22 116.62 8.83 105.33 33.61 131.15 24.97 110.76 43.01 137.86 45.62 111.9 53.8 135.59 67.21 108.54 64.13 124.74 86.02 101.28 72.2 107.17 98.78 91.36 76.61 85.93 103.29 80.5 76.61 64.69 98.78 70.58 72.2 47.13 86.02 63.32 64.13 36.27 67.21 59.97 53.8 34 45.62 61.1 43.01 40.71 24.97 66.53 33.61 55.24 8.83 75.31 27.22 75.07 0 85.93 24.97"/>
    <path class="cls-5" d="m7.43,229.2c7.37,1.34,14.43-3.54,15.77-10.91l48.72,8.88,48.72,8.88c-1.34,7.37,3.54,14.43,10.91,15.77l-7.43,40.74c-7.37-1.34-14.43,3.54-15.77,10.91l-48.72-8.88-48.72-8.88c1.34-7.37-3.54-14.43-10.91-15.77l3.71-20.37,3.71-20.37Z"/>
    <g>
      <path class="cls-3" d="m22.21,237.02c1.13.4,1.96.59,3.83.93l4.1.75c2.29.42,2.71.49,4.03.6-.47,1.68-.79,3.03-1.18,5.16l-3.08,16.92c-.35,1.94-.53,3.31-.63,4.92l-7.04-1.28c.47-1.45.8-2.96,1.15-4.83l3-16.47-1.29-.24c-1.26-.23-2.53-.39-3.98-.49l1.09-5.97Z"/>
      <path class="cls-3" d="m47.25,262.17c.13.76.26,1.12.52,1.53.57.9,1.53,1.51,2.82,1.75,1.81.33,3.41-.21,4.55-1.51.8-.92,1.3-2.03,1.9-4.19-2.04,1.33-4.01,1.67-6.85,1.15-5.81-1.06-8.95-5.27-7.96-10.69,1.04-5.71,6.15-8.82,12.54-7.66,4.1.75,7.06,3.02,8.43,6.47.94,2.34,1.09,5.54.44,9.09-.62,3.42-1.85,6.47-3.49,8.71-1.55,2.12-3.96,3.58-6.38,3.91-1.37.18-3,.16-4.45-.11-3.07-.56-5.4-1.85-7-3.88-.91-1.2-1.31-2.18-1.79-4.3l6.72-.28Zm10.4-9.48c.44-2.42-1.12-4.44-3.8-4.93s-4.83.85-5.27,3.31c-.45,2.49.99,4.45,3.64,4.93,2.77.51,4.99-.83,5.44-3.31Z"/>
      <path class="cls-3" d="m72.21,266.72c.13.76.26,1.12.52,1.53.57.9,1.53,1.51,2.82,1.75,1.81.33,3.41-.21,4.55-1.51.8-.92,1.3-2.03,1.9-4.19-2.04,1.33-4.01,1.67-6.85,1.15-5.81-1.06-8.95-5.27-7.96-10.69,1.04-5.71,6.15-8.82,12.54-7.66,4.1.75,7.06,3.02,8.43,6.47.94,2.34,1.09,5.54.44,9.09s-1.85,6.47-3.49,8.71c-1.55,2.12-3.96,3.58-6.38,3.91-1.37.18-3,.16-4.45-.11-3.07-.56-5.4-1.85-7-3.88-.91-1.2-1.31-2.18-1.79-4.3l6.72-.28Zm10.4-9.48c.44-2.42-1.12-4.44-3.8-4.93-2.68-.49-4.83.85-5.27,3.31-.45,2.49.99,4.45,3.64,4.93s4.99-.83,5.44-3.31Z"/>
      <path class="cls-3" d="m112.12,269.22c.78,1.38.96,2.81.62,4.68-.37,2.03-1.45,3.74-3.07,4.78-2.31,1.52-5.79,1.91-9.82,1.18s-7.23-2.42-8.82-4.68c-1.06-1.5-1.42-3.4-1.04-5.43.41-2.23,1.57-3.85,3.45-4.84,1.14-.59,2.05-.83,3.66-.87-1.52-.81-2.19-1.33-2.81-2.35-.8-1.25-1.09-2.8-.8-4.42.31-1.68,1.02-3.05,2.1-3.99,2.1-1.79,5.51-2.4,9.45-1.68,6.26,1.14,9.72,4.71,8.9,9.2-.56,3.07-2.4,4.76-5.67,5.27,1.97.72,3.05,1.59,3.86,3.14Zm-15.4,1.2c-.38,2.1,1.16,3.68,4.1,4.22,3,.55,4.94-.4,5.34-2.57.39-2.16-1.12-3.74-4.03-4.27-2.97-.54-5.02.45-5.41,2.62Zm3.07-11.55c-.32,1.78.95,3.18,3.31,3.61,2.33.42,3.95-.42,4.28-2.22s-.94-3.11-3.26-3.53c-2.33-.42-4.01.4-4.33,2.15Z"/>
    </g>
    <circle class="cls-6" cx="57.69" cy="127.02" r="57.69"/>
    <text class="cls-8" transform="translate(105.11 119.97) rotate(83.79)"><tspan x="0" y="0">赤</tspan></text>
    <text class="cls-8" transform="translate(105.5 123.54) rotate(88.05)"><tspan x="0" y="0">鬼</tspan></text>
    <text class="cls-8" transform="translate(105.62 127.13) rotate(92.27)"><tspan x="0" y="0">は</tspan></text>
    <text class="cls-8" transform="translate(105.48 130.71) rotate(96.52)"><tspan x="0" y="0">、</tspan></text>
    <text class="cls-8" transform="translate(105.31 132.52) rotate(98.69)"><tspan x="0" y="0">人</tspan></text>
    <text class="cls-8" transform="translate(104.77 136.07) rotate(103)"><tspan x="0" y="0">間</tspan></text>
    <text class="cls-8" transform="translate(103.97 139.53) rotate(107.28)"><tspan x="0" y="0">た</tspan></text>
    <text class="cls-8" transform="translate(102.95 142.82) rotate(111.43)"><tspan x="0" y="0">ち</tspan></text>
    <text class="cls-8" transform="translate(101.77 145.88) rotate(115.38)"><tspan x="0" y="0">と</tspan></text>
    <text class="cls-8" transform="translate(100.33 148.93) rotate(119.42)"><tspan x="0" y="0">も</tspan></text>
    <text class="cls-8" transform="translate(98.63 151.96) rotate(123.57)"><tspan x="0" y="0">仲</tspan></text>
    <text class="cls-8" transform="translate(96.68 154.9) rotate(127.78)"><tspan x="0" y="0">良</tspan></text>
    <text class="cls-8" transform="translate(94.69 157.49) rotate(131.67)"><tspan x="0" y="0">く</tspan></text>
    <text class="cls-8" transform="translate(92.65 159.81) rotate(135.34)"><tspan x="0" y="0">し</tspan></text>
    <text class="cls-8" transform="translate(90.22 162.22) rotate(139.4)"><tspan x="0" y="0">た</tspan></text>
    <text class="cls-8" transform="translate(87.55 164.52) rotate(143.59)"><tspan x="0" y="0">い</tspan></text>
    <text class="cls-8" transform="translate(84.86 166.52) rotate(147.59)"><tspan x="0" y="0">と</tspan></text>
    <text class="cls-8" transform="translate(81.93 168.38) rotate(151.75)"><tspan x="0" y="0">考</tspan></text>
    <text class="cls-8" transform="translate(78.86 170.04) rotate(155.93)"><tspan x="0" y="0">え</tspan></text>
    <text class="cls-8" transform="translate(75.63 171.49) rotate(160.2)"><tspan x="0" y="0">、</tspan></text>
    <text class="cls-8" transform="translate(74.02 172.1) rotate(162.28)"><tspan x="0" y="0">自</tspan></text>
    <text class="cls-8" transform="translate(70.64 173.19) rotate(166.55)"><tspan x="0" y="0">分</tspan></text>
    <text class="cls-8" transform="translate(67.19 174.01) rotate(170.82)"><tspan x="0" y="0">の</tspan></text>
    <text class="cls-8" transform="translate(63.64 174.59) rotate(175.11)"><tspan x="0" y="0">家</tspan></text>
    <text class="cls-8" transform="translate(60.09 174.89) rotate(179.07)"><tspan x="0" y="0">の</tspan></text>
    <text class="cls-8" transform="translate(56.5 174.94) rotate(-176.46)"><tspan x="0" y="0">前</tspan></text>
    <text class="cls-8" transform="translate(52.94 174.72) rotate(-172.22)"><tspan x="0" y="0">に</tspan></text>
    <text class="cls-8" transform="translate(49.45 174.25) rotate(-167.99)"><tspan x="0" y="0">、</tspan></text>
    <text class="cls-8" transform="translate(47.66 173.91) rotate(-165.8)"><tspan x="0" y="0">赤</tspan></text>
    <text class="cls-8" transform="translate(44.19 173.03) rotate(-161.48)"><tspan x="0" y="0">鬼</tspan></text>
    <text class="cls-8" transform="translate(40.79 171.89) rotate(-157.16)"><tspan x="0" y="0">は</tspan></text>
    <text class="cls-8" transform="translate(37.47 170.5) rotate(-152.83)"><tspan x="0" y="0">、</tspan></text>
    <text class="cls-8" transform="translate(35.84 169.7) rotate(-150.67)"><tspan x="0" y="0">人</tspan></text>
    <text class="cls-8" transform="translate(32.72 167.95) rotate(-146.39)"><tspan x="0" y="0">間</tspan></text>
    <text class="cls-8" transform="translate(29.75 165.98) rotate(-142.14)"><tspan x="0" y="0">た</tspan></text>
    <text class="cls-8" transform="translate(27.02 163.86) rotate(-138.03)"><tspan x="0" y="0">ち</tspan></text>
    <text class="cls-8" transform="translate(24.58 161.69) rotate(-134.15)"><tspan x="0" y="0">と</tspan></text>
    <text class="cls-8" transform="translate(22.22 159.27) rotate(-130.13)"><tspan x="0" y="0">も</tspan></text>
    <text class="cls-8" transform="translate(19.99 156.63) rotate(-126.02)"><tspan x="0" y="0">仲</tspan></text>
    <text class="cls-8" transform="translate(17.9 153.76) rotate(-121.78)"><tspan x="0" y="0">良</tspan></text>
    <text class="cls-8" transform="translate(16.16 150.98) rotate(-117.86)"><tspan x="0" y="0">く</tspan></text>
    <text class="cls-8" transform="translate(14.7 148.26) rotate(-114.15)"><tspan x="0" y="0">し</tspan></text>
    <text class="cls-8" transform="translate(13.3 145.17) rotate(-110.06)"><tspan x="0" y="0">た</tspan></text>
    <text class="cls-8" transform="translate(12.09 141.85) rotate(-105.81)"><tspan x="0" y="0">い</tspan></text>
    <text class="cls-8" transform="translate(11.16 138.6) rotate(-101.74)"><tspan x="0" y="0">と</tspan></text>
    <text class="cls-8" transform="translate(10.45 135.25) rotate(-97.63)"><tspan x="0" y="0">考</tspan></text>
    <text class="cls-8" transform="translate(9.98 131.76) rotate(-93.45)"><tspan x="0" y="0">え</tspan></text>
    <text class="cls-8" transform="translate(9.76 128.26) rotate(-89.07)"><tspan x="0" y="0">、</tspan></text>
    <text class="cls-8" transform="translate(9.75 126.53) rotate(-87.28)"><tspan x="0" y="0">自</tspan></text>
    <text class="cls-8" transform="translate(9.92 122.99) rotate(-83.07)"><tspan x="0" y="0">分</tspan></text>
    <text class="cls-8" transform="translate(10.35 119.43) rotate(-78.77)"><tspan x="0" y="0">の</tspan></text>
    <text class="cls-8" transform="translate(11.05 115.91) rotate(-74.46)"><tspan x="0" y="0">家</tspan></text>
    <text class="cls-8" transform="translate(12 112.47) rotate(-70.16)"><tspan x="0" y="0">の</tspan></text>
    <text class="cls-8" transform="translate(13.21 109.1) rotate(-65.85)"><tspan x="0" y="0">前</tspan></text>
    <text class="cls-8" transform="translate(14.67 105.85) rotate(-61.57)"><tspan x="0" y="0">に</tspan></text>
    <text class="cls-8" transform="translate(16.35 102.74) rotate(-57.34)"><tspan x="0" y="0">、</tspan></text>
    <text class="cls-8" transform="translate(17.29 101.2) rotate(-55.18)"><tspan x="0" y="0">赤</tspan></text>
    <text class="cls-8" transform="translate(19.35 98.25) rotate(-50.89)"><tspan x="0" y="0">鬼</tspan></text>
    <text class="cls-8" transform="translate(21.6 95.47) rotate(-46.64)"><tspan x="0" y="0">は</tspan></text>
    <text class="cls-8" transform="translate(24.08 92.84) rotate(-42.35)"><tspan x="0" y="0">、</tspan></text>
    <text class="cls-8" transform="translate(25.39 91.6) rotate(-40.22)"><tspan x="0" y="0">人</tspan></text>
    <text class="cls-8" transform="translate(28.13 89.28) rotate(-35.93)"><tspan x="0" y="0">間</tspan></text>
    <text class="cls-8" transform="translate(30.99 87.2) rotate(-31.71)"><tspan x="0" y="0">た</tspan></text>
    <text class="cls-8" transform="translate(33.94 85.37) rotate(-27.55)"><tspan x="0" y="0">ち</tspan></text>
    <text class="cls-8" transform="translate(36.84 83.85) rotate(-23.63)"><tspan x="0" y="0">と</tspan></text>
    <text class="cls-8" transform="translate(39.92 82.49) rotate(-19.58)"><tspan x="0" y="0">も</tspan></text>
    <text class="cls-8" transform="translate(43.17 81.32) rotate(-15.41)"><tspan x="0" y="0">仲</tspan></text>
    <text class="cls-8" transform="translate(46.59 80.38) rotate(-11.14)"><tspan x="0" y="0">良</tspan></text>
    <text class="cls-8" transform="translate(49.82 79.73) rotate(-7.2)"><tspan x="0" y="0">く</tspan></text>
    <text class="cls-8" transform="translate(52.85 79.33) rotate(-3.56)"><tspan x="0" y="0">し</tspan></text>
    <text class="cls-8" transform="translate(56.25 79.09) rotate(.93)"><tspan x="0" y="0">た</tspan></text>
    <text class="cls-8" transform="translate(59.78 79.13) rotate(4.62)"><tspan x="0" y="0">い</tspan></text>
    <text class="cls-8" transform="translate(63.14 79.39) rotate(8.64)"><tspan x="0" y="0">と</tspan></text>
    <text class="cls-8" transform="translate(66.55 79.9) rotate(12.78)"><tspan x="0" y="0">考</tspan></text>
    <text class="cls-8" transform="translate(69.98 80.68) rotate(17.01)"><tspan x="0" y="0">え</tspan></text>
    <text class="cls-8" transform="translate(73.35 81.7) rotate(21.26)"><tspan x="0" y="0">、</tspan></text>
    <text class="cls-8" transform="translate(74.96 82.29) rotate(23.32)"><tspan x="0" y="0">自</tspan></text>
    <text class="cls-8" transform="translate(78.23 83.7) rotate(27.6)"><tspan x="0" y="0">分</tspan></text>
    <text class="cls-8" transform="translate(81.38 85.34) rotate(31.85)"><tspan x="0" y="0">の</tspan></text>
    <text class="cls-8" transform="translate(84.44 87.24) rotate(36.15)"><tspan x="0" y="0">家</tspan></text>
    <text class="cls-8" transform="translate(87.32 89.34) rotate(40.39)"><tspan x="0" y="0">の</tspan></text>
    <text class="cls-8" transform="translate(90.06 91.67) rotate(44.66)"><tspan x="0" y="0">前</tspan></text>
    <text class="cls-8" transform="translate(92.59 94.17) rotate(48.89)"><tspan x="0" y="0">に</tspan></text>
    <text class="cls-8" transform="translate(94.91 96.82) rotate(53.08)"><tspan x="0" y="0">、</tspan></text>
    <text class="cls-8" transform="translate(96.02 98.24) rotate(55.23)"><tspan x="0" y="0">赤</tspan></text>
    <text class="cls-8" transform="translate(98.08 101.2) rotate(59.54)"><tspan x="0" y="0">鬼</tspan></text>
    <text class="cls-8" transform="translate(99.9 104.29) rotate(63.84)"><tspan x="0" y="0">は</tspan></text>
    <text class="cls-8" transform="translate(101.49 107.53) rotate(68.17)"><tspan x="0" y="0">、</tspan></text>
    <text class="cls-8" transform="translate(102.19 109.18) rotate(70.33)"><tspan x="0" y="0">人</tspan></text>
    <text class="cls-8" transform="translate(103.41 112.58) rotate(74.68)"><tspan x="0" y="0">間</tspan></text>
    <g>
      <path class="cls-3" d="m56.76,117.75c-.76-.07-1.3-.11-2.5-.14-.91,2.82-1.59,4.16-3.3,6.3,2.14,1.05,3.77,1.59,6.55,2.06-1.23,1.99-1.63,2.86-2.5,5.4-3.26-.98-5.47-2.03-8.04-3.77-1.27.91-2.46,1.56-4.42,2.39.98,1.12,2.24,2.82,3.11,4.13l-4.42,2.57c-1.16-2.25-1.88-3.26-3.55-5.29l1.81-.83c-.36-.8-.62-1.23-1.23-2.14h-5.25c.11-1.16.14-2.28.14-3.87v-7.6c0-1.38,0-2.13-.07-2.82-.58,1.19-.76,1.56-1.38,2.61v10.07c0,2.03.04,3.04.15,4.05h-5.54c.18-.9.22-1.41.22-2.9v-4.49c-.58.76-.87,1.12-1.67,1.85-.65-2.21-1.19-3.55-2.32-5.79,3.19-2.64,5.65-6.59,6.34-10.14l5.72,1.41c-.18.36-.54,1.16-.72,1.59-.22.51-.29.65-.47,1.05h4.82c-.11.98-.11,1.38-.11,3.44,1.85-1.88,3.33-4.89,3.73-7.5l5.68.83c-.11.29-.8,1.99-.98,2.39h6.44c1.52,0,2.72-.07,3.73-.18v5.32Zm-34,21.83c1.81-2.64,2.61-4.67,3.22-8.11l4.67,1.85c-.83,4.34-1.48,6.19-3.33,9.52l-4.56-3.26Zm14.48-2.06c0,.87.44,1.01,3.11,1.01q4.09,0,4.09-3.62c1.96.73,3.15,1.01,5.1,1.27-.54-1.05-.91-1.56-1.88-3.04l4.74-2.24c2.13,3.18,3.37,5.43,4.89,8.76l-4.96,2.68c-.94-2.53-1.41-3.62-2.5-5.68-.22,3.3-.51,4.38-1.41,5.4-1.05,1.16-2.79,1.48-8.11,1.48-3.26,0-4.63-.07-5.83-.36-1.99-.44-2.68-1.38-2.68-3.58v-4.93c0-1.96-.04-2.57-.18-3.51h5.76c-.11.87-.14,1.52-.14,3.51v2.86Zm.91-12.53v1.05c1.88-.47,3.29-1.01,4.85-1.88-.87-.94-1.27-1.45-2.14-2.68-.51.51-.72.69-1.41,1.23-.54-.91-.72-1.16-1.3-1.92v4.2Zm5.79-7.31c.94,1.56,1.56,2.32,2.82,3.44,1.05-1.23,1.48-1.99,1.99-3.51h-4.74l-.07.07Z"/>
      <path class="cls-3" d="m64.3,137.85c-1.74,0-3.04.07-4.38.22v-5.07c1.27.14,2.5.22,4.42.22h23.93c2.24,0,3.44-.07,4.78-.22v5.07c-1.38-.15-2.5-.22-4.16-.22h-4.49c2.43,1.01,5.47,1.7,9.09,2.03-1.27,1.7-1.45,1.96-2.97,4.56-5.07-.9-8.15-2.03-12.45-4.45l2.53-2.13h-8.36l2.53,2.13c-3.04,1.81-4.74,2.57-7.86,3.44-1.77.51-2.75.69-4.53.94-.8-1.81-1.41-2.82-2.82-4.53,3.58-.36,6.59-1.01,8.98-1.99h-4.23Zm9.38-26.07c-.04-.87-.07-1.27-.18-1.92h5.94c-.11.58-.14.98-.18,1.92h8.36c2.39,0,3.73-.07,5.1-.22v4.96c-1.41-.15-2.75-.22-5.1-.22h-8.36v1.09h5.76c2.17,0,3.15-.04,4.42-.11-.14,1.05-.14,2.06-.14,4.27v6.52c0,2.17,0,3.19.14,4.24-1.41-.07-2.53-.11-4.42-.11h-17.16c-1.77,0-3.04.04-4.34.11.07-1.27.14-2.39.14-4.24v-6.52c0-1.96-.04-3.04-.14-4.27,1.34.07,2.24.11,4.42.11h5.79v-1.09h-8.47c-2.32,0-3.69.07-5.07.22v-4.96c1.34.14,2.64.22,5.07.22h8.44Zm-4.71,10.1h14.99v-1.09h-14.99v1.09Zm0,3.48h14.99v-1.09h-14.99v1.09Zm0,3.44h14.99v-1.05h-14.99v1.05Z"/>
    </g>
    <circle class="cls-4" cx="85.72" cy="333.19" r="48.27"/>
    <ellipse class="cls-7" cx="91.99" cy="316.15" rx="3.91" ry="9.13" transform="translate(-122.24 66.11) rotate(-24.37)"/>
    <path class="cls-2" d="m113.6,321.99c5.65,12.47-2.28,28.24-17.7,35.23-15.42,6.99-32.51,2.54-38.16-9.93"/>
    <line class="cls-1" x1="110.03" y1="323.61" x2="117.16" y2="320.38"/>
    <ellipse class="cls-7" cx="67.04" cy="327.49" rx="3.91" ry="9.13" transform="translate(-129.14 56.83) rotate(-24.37)"/>
    <line class="cls-1" x1="53.03" y1="349.07" x2="60.16" y2="345.84"/>
  </g>
</svg>