<?xml version="1.0" encoding="UTF-8"?>
<svg id="Calque_2" data-name="Calque 2" xmlns="http://www.w3.org/2000/svg" viewBox="0 0 159.71 71.88">
  <defs>
    <style>
      .cls-1 {
        fill: #f3d255;
      }
    </style>
  </defs>
  <g id="Maquette">
    <g>
      <path class="cls-1" d="m12.22,14.6c0-.28-.11-.48-.32-.6-.21-.13-.56-.21-1.04-.26-2.11-.23-3.9-.54-5.36-.94-1.46-.4-2.55-1.03-3.28-1.89-.73-.85-1.09-2.11-1.09-3.77,0-.98.18-1.9.55-2.76.36-.85,1-1.6,1.9-2.24.9-.64,2.17-1.14,3.79-1.49,1.62-.35,3.69-.53,6.2-.53s4.75.11,6.41.32c1.66.21,2.94.52,3.85.92.91.41,1.54.87,1.9,1.41.36.54.55,1.13.55,1.76,0,.98-.27,1.7-.81,2.17-.54.47-1.15.7-1.83.7-.6,0-1.18-.06-1.72-.19-.54-.13-1.08-.26-1.6-.41s-1.07-.28-1.64-.4c-.56-.11-1.19-.17-1.87-.17-.43,0-.73.07-.91.21-.18.14-.26.33-.26.59,0,.2.04.36.13.47.09.11.23.2.41.26.19.06.45.12.77.17,2.11.25,3.94.62,5.49,1.11s2.73,1.26,3.54,2.3c.82,1.04,1.23,2.54,1.23,4.51s-.45,3.71-1.36,5.03c-.91,1.32-2.4,2.31-4.49,2.96-2.09.65-4.9.98-8.45.98-3.27,0-5.85-.25-7.75-.74-1.9-.49-3.24-1.19-4.02-2.11-.78-.92-1.17-2.02-1.17-3.3,0-.91.16-1.73.47-2.47s.75-1.34,1.3-1.79c.55-.45,1.22-.68,2-.68.73,0,1.39.08,2,.25s1.17.36,1.7.58c.53.23,1.07.43,1.62.6.55.17,1.17.26,1.85.26.38,0,.68-.07.92-.21s.36-.34.36-.62Z"/>
      <path class="cls-1" d="m46.16,12.79c0,.28.06.62.17,1.02.11.41.24.87.4,1.4.15.53.3,1.06.45,1.58.15.53.28,1.05.38,1.57.1.52.15,1,.15,1.45,0,.88-.18,1.64-.53,2.28-.35.64-.89,1.17-1.6,1.58s-1.59.72-2.62.91c-1.03.19-2.24.28-3.62.28s-2.56-.1-3.6-.3c-1.04-.2-1.92-.5-2.62-.91-.7-.4-1.24-.92-1.6-1.57-.36-.64-.55-1.4-.55-2.28,0-.45.05-.94.15-1.45.1-.52.23-1.04.38-1.57s.3-1.06.45-1.58.28-.99.4-1.4c.11-.4.17-.74.17-1.02,0-.33-.04-.59-.13-.77-.09-.19-.21-.32-.38-.38-.16-.06-.35-.1-.55-.1-.23,0-.44,0-.64.02-.2.02-.38.03-.55.04-.16.01-.32.02-.47.02-.4,0-.77-.12-1.11-.36s-.6-.64-.79-1.21-.28-1.36-.28-2.39c0-1.51.17-2.75.53-3.74.35-.98.96-1.75,1.83-2.3.87-.55,2.05-.94,3.56-1.17,1.51-.23,3.45-.34,5.81-.34s4.3.11,5.83.34c1.52.22,2.71.61,3.56,1.17.85.56,1.46,1.32,1.81,2.3.35.98.53,2.23.53,3.74,0,1.03-.1,1.83-.3,2.39s-.46.97-.77,1.21c-.31.24-.67.36-1.08.36-.15,0-.32,0-.51-.02-.19-.01-.37-.02-.55-.04-.18-.01-.39-.02-.64-.02-.23,0-.41.03-.56.1-.15.06-.27.19-.36.38-.09.19-.13.45-.13.77Z"/>
      <path class="cls-1" d="m80.74,6.79c0,1.03-.16,1.86-.49,2.49s-.85,1.13-1.57,1.49c-.72.37-1.66.68-2.85.92-.25.05-.47.15-.64.3-.18.15-.26.31-.26.49,0,.25.11.43.34.53.23.1.53.15.91.15h.66c.21,0,.43,0,.64-.02.21-.01.46-.02.74-.02.93,0,1.7.27,2.32.81.62.54,1.09,1.26,1.41,2.17s.49,1.87.49,2.9c0,2.04-.54,3.51-1.62,4.43-1.08.92-2.85,1.38-5.32,1.38-1.56,0-2.89-.18-4-.55-1.11-.36-1.95-.95-2.53-1.77s-.85-1.91-.83-3.26c.02-.85.01-1.57-.04-2.15-.05-.58-.15-1.03-.28-1.34-.14-.31-.31-.53-.51-.66-.2-.13-.45-.19-.75-.19-.4,0-.69.1-.85.28-.16.19-.25.46-.25.81,0,.43.04.82.11,1.17.08.35.16.69.25,1.02.09.33.16.69.23,1.09s.1.87.1,1.4c0,1.28-.5,2.31-1.51,3.07-1.01.77-2.41,1.15-4.22,1.15-2.56,0-4.51-.37-5.85-1.11-1.33-.74-2.2-2.02-2.6-3.83-.15-.63-.26-1.28-.34-1.96-.08-.68-.12-1.36-.13-2.03-.01-.68,0-1.36.04-2.04.04-.68.09-1.33.17-1.96.08-.65.18-1.32.3-2,.12-.68.26-1.36.4-2.03.14-.68.31-1.35.51-2,.2-.65.43-1.28.68-1.88.4-1.06,1.02-1.88,1.87-2.47.84-.59,2.04-1,3.58-1.22,1.55-.23,3.58-.34,6.09-.34,3.85,0,6.91.25,9.18.75s3.92,1.26,4.92,2.28c1.01,1.02,1.51,2.27,1.51,3.75Zm-16.59,1.7c0,.35.06.64.17.87s.3.38.56.47c.26.09.62.13,1.08.13.73,0,1.3-.05,1.72-.15s.72-.25.91-.43c.19-.19.28-.45.28-.77,0-.53-.25-.9-.75-1.11-.5-.21-1.36-.32-2.57-.32-.33,0-.6.03-.81.1-.21.06-.37.18-.45.36-.09.18-.13.47-.13.87Z"/>
      <path class="cls-1" d="m96.54,24.85c-2.54,0-4.61-.09-6.22-.26-1.61-.17-2.87-.45-3.77-.83-.91-.38-1.57-.88-2-1.51-.43-.63-.74-1.38-.94-2.26-.13-.65-.21-1.31-.26-1.98s-.09-1.35-.11-2.04-.01-1.37.04-2.06c.05-.68.11-1.33.19-1.96.08-.65.17-1.32.28-2s.24-1.36.38-2.03c.14-.68.3-1.35.49-2s.4-1.3.62-1.92c.3-.75.65-1.39,1.04-1.91.39-.52.95-.92,1.7-1.22.74-.3,1.76-.52,3.05-.66,1.3-.14,2.94-.21,4.92-.21,2.79,0,4.97.05,6.54.15,1.57.1,2.73.3,3.49.59.75.29,1.24.69,1.45,1.21.21.52.32,1.16.32,1.94,0,.73-.08,1.33-.25,1.81-.16.48-.41.84-.74,1.09-.33.25-.77.38-1.32.38-.9-.02-1.67-.08-2.3-.17-.63-.09-1.23-.18-1.81-.27-.58-.09-1.24-.13-2-.13-.25,0-.47.03-.66.1-.19.06-.34.17-.45.3s-.17.34-.17.62c0,.25.09.46.28.62s.5.25.92.25c.6,0,1.15-.02,1.64-.06.49-.04.96-.09,1.41-.17.45-.07.9-.13,1.36-.17s.94-.06,1.47-.06c.75,0,1.29.21,1.6.64.31.43.47,1.12.47,2.07,0,.73-.16,1.32-.49,1.77-.33.45-.88.68-1.66.68-.45,0-.89-.01-1.32-.04-.43-.02-.88-.05-1.36-.08-.48-.02-.97-.05-1.49-.08-.52-.02-1.07-.04-1.68-.04-.43,0-.74.08-.92.25s-.28.38-.28.66c0,.2.05.37.15.51.1.14.24.23.42.28.17.05.36.08.56.08.8,0,1.53-.05,2.17-.13.64-.09,1.34-.18,2.09-.28.75-.1,1.68-.15,2.79-.15.68,0,1.24.14,1.7.42.45.28.8.74,1.04,1.39.24.65.36,1.56.36,2.72,0,1.26-.16,2.29-.47,3.09-.31.8-.91,1.42-1.77,1.85-.87.43-2.14.73-3.83.92-1.68.19-3.91.28-6.67.28Z"/>
      <path class="cls-1" d="m123.02,24.85c-2.54,0-4.61-.09-6.22-.26-1.61-.17-2.87-.45-3.77-.83-.91-.38-1.57-.88-2-1.51-.43-.63-.74-1.38-.94-2.26-.13-.65-.21-1.31-.26-1.98s-.09-1.35-.11-2.04-.01-1.37.04-2.06c.05-.68.11-1.33.19-1.96.08-.65.17-1.32.28-2s.24-1.36.38-2.03c.14-.68.3-1.35.49-2s.4-1.3.62-1.92c.3-.75.65-1.39,1.04-1.91.39-.52.95-.92,1.7-1.22.74-.3,1.76-.52,3.05-.66,1.3-.14,2.94-.21,4.92-.21,2.79,0,4.97.05,6.54.15,1.57.1,2.73.3,3.49.59.75.29,1.24.69,1.45,1.21.21.52.32,1.16.32,1.94,0,.73-.08,1.33-.25,1.81-.16.48-.41.84-.74,1.09-.33.25-.77.38-1.32.38-.9-.02-1.67-.08-2.3-.17-.63-.09-1.23-.18-1.81-.27-.58-.09-1.24-.13-2-.13-.25,0-.47.03-.66.1-.19.06-.34.17-.45.3s-.17.34-.17.62c0,.25.09.46.28.62s.5.25.92.25c.6,0,1.15-.02,1.64-.06.49-.04.96-.09,1.41-.17.45-.07.9-.13,1.36-.17s.94-.06,1.47-.06c.75,0,1.29.21,1.6.64.31.43.47,1.12.47,2.07,0,.73-.16,1.32-.49,1.77-.33.45-.88.68-1.66.68-.45,0-.89-.01-1.32-.04-.43-.02-.88-.05-1.36-.08-.48-.02-.97-.05-1.49-.08-.52-.02-1.07-.04-1.68-.04-.43,0-.74.08-.92.25s-.28.38-.28.66c0,.2.05.37.15.51.1.14.24.23.42.28.17.05.36.08.56.08.8,0,1.53-.05,2.17-.13.64-.09,1.34-.18,2.09-.28.75-.1,1.68-.15,2.79-.15.68,0,1.24.14,1.7.42.45.28.8.74,1.04,1.39.24.65.36,1.56.36,2.72,0,1.26-.16,2.29-.47,3.09-.31.8-.91,1.42-1.77,1.85-.87.43-2.14.73-3.83.92-1.68.19-3.91.28-6.67.28Z"/>
      <path class="cls-1" d="m154.81,12.79c0,.28.06.62.17,1.02.11.41.24.87.4,1.4.15.53.3,1.06.45,1.58.15.53.28,1.05.38,1.57.1.52.15,1,.15,1.45,0,.88-.18,1.64-.53,2.28-.35.64-.89,1.17-1.6,1.58s-1.59.72-2.62.91c-1.03.19-2.24.28-3.62.28s-2.56-.1-3.6-.3c-1.04-.2-1.92-.5-2.62-.91-.7-.4-1.24-.92-1.6-1.57-.36-.64-.55-1.4-.55-2.28,0-.45.05-.94.15-1.45.1-.52.23-1.04.38-1.57s.3-1.06.45-1.58.28-.99.4-1.4c.11-.4.17-.74.17-1.02,0-.33-.04-.59-.13-.77-.09-.19-.21-.32-.38-.38-.16-.06-.35-.1-.55-.1-.23,0-.44,0-.64.02-.2.02-.38.03-.55.04-.16.01-.32.02-.47.02-.4,0-.77-.12-1.11-.36s-.6-.64-.79-1.21-.28-1.36-.28-2.39c0-1.51.17-2.75.53-3.74.35-.98.96-1.75,1.83-2.3.87-.55,2.05-.94,3.56-1.17,1.51-.23,3.45-.34,5.81-.34s4.3.11,5.83.34c1.52.22,2.71.61,3.56,1.17.85.56,1.46,1.32,1.81,2.3.35.98.53,2.23.53,3.74,0,1.03-.1,1.83-.3,2.39s-.46.97-.77,1.21c-.31.24-.67.36-1.08.36-.15,0-.32,0-.51-.02-.19-.01-.37-.02-.55-.04-.18-.01-.39-.02-.64-.02-.23,0-.41.03-.56.1-.15.06-.27.19-.36.38-.09.19-.13.45-.13.77Z"/>
      <path class="cls-1" d="m26.27,67.12c0,.91-.14,1.67-.43,2.28-.29.61-.85,1.1-1.7,1.47-.84.37-2.1.63-3.77.79-1.67.15-3.84.23-6.51.23-3.07,0-5.52-.21-7.34-.63-1.82-.42-3.18-1.13-4.08-2.13-.89-.99-1.49-2.28-1.8-3.87-.17-.84-.29-1.71-.35-2.6s-.11-1.81-.13-2.74c-.02-.93,0-1.85.05-2.76.05-.91.13-1.79.23-2.63.1-.88.23-1.76.38-2.66s.33-1.8.53-2.71.42-1.8.66-2.68c.23-.88.5-1.76.81-2.63.34-.98.77-1.82,1.32-2.51.54-.69,1.31-1.25,2.3-1.67.99-.42,2.32-.73,3.97-.91,1.65-.19,3.76-.28,6.33-.28,3.24,0,5.91.05,8.02.15s3.8.25,5.06.46c1.26.2,2.21.5,2.83.89s1.03.88,1.22,1.47.28,1.31.28,2.15c0,1.32-.13,2.41-.38,3.29s-.62,1.54-1.09,2c-.47.46-1.1.68-1.87.68-1.42,0-2.56-.04-3.42-.13-.86-.08-1.67-.18-2.43-.28-.76-.1-1.66-.15-2.71-.15-.37,0-.69.03-.96.1-.27.07-.49.2-.66.4s-.25.45-.25.76.06.53.18.68c.12.15.3.26.56.33s.56.1.94.1c.88,0,1.65-.03,2.33-.08s1.33-.11,1.98-.18c.64-.07,1.27-.12,1.9-.15s1.32-.05,2.1-.05c1.22,0,2.01.4,2.38,1.22.37.81.56,2.13.56,3.95,0,1.45-.23,2.68-.68,3.67-.46,1-1.19,1.5-2.2,1.5-.34,0-.69,0-1.06-.02-.37-.02-.76-.02-1.17,0-.4.02-.83.02-1.26,0s-.91-.03-1.42-.03c-.44,0-.75.09-.94.28s-.28.41-.28.68c0,.17.07.4.2.71.14.3.3.63.51.96.2.34.4.68.58,1.04.19.35.34.73.48,1.12.13.39.2.77.2,1.14Z"/>
      <path class="cls-1" d="m55.43,38.41c2.9,0,5.5.28,7.79.86,2.29.57,4.28,1.38,5.95,2.43,1.67,1.05,3.05,2.31,4.15,3.79,1.1,1.49,1.92,3.16,2.46,5.01.54,1.85.81,3.86.81,6.02,0,2.57-.3,4.81-.91,6.73s-1.68,3.51-3.22,4.76c-1.53,1.25-3.68,2.19-6.43,2.81-2.75.63-6.28.94-10.6.94s-7.64-.31-10.38-.94c-2.74-.62-4.86-1.56-6.38-2.81s-2.59-2.83-3.22-4.73c-.62-1.9-.94-4.14-.94-6.71,0-2.16.28-4.17.83-6.02.56-1.86,1.38-3.53,2.46-5.04,1.08-1.5,2.46-2.77,4.13-3.82,1.67-1.05,3.63-1.86,5.87-2.43,2.24-.58,4.78-.86,7.62-.86Zm.1,16.2c1.01,0,1.76-.14,2.23-.4.47-.27.71-.73.71-1.37,0-.68-.25-1.18-.76-1.52-.51-.34-1.23-.51-2.18-.51s-1.72.17-2.23.51c-.5.34-.76.84-.76,1.52,0,.57.24,1.01.73,1.31.49.3,1.24.46,2.25.46Z"/>
      <path class="cls-1" d="m98.46,38.41c2.9,0,5.5.28,7.79.86,2.29.57,4.28,1.38,5.95,2.43,1.67,1.05,3.05,2.31,4.15,3.79,1.1,1.49,1.92,3.16,2.46,5.01.54,1.85.81,3.86.81,6.02,0,2.57-.3,4.81-.91,6.73s-1.68,3.51-3.22,4.76c-1.53,1.25-3.68,2.19-6.43,2.81-2.75.63-6.28.94-10.6.94s-7.64-.31-10.38-.94c-2.74-.62-4.86-1.56-6.38-2.81s-2.59-2.83-3.22-4.73c-.62-1.9-.94-4.14-.94-6.71,0-2.16.28-4.17.83-6.02.56-1.86,1.38-3.53,2.46-5.04,1.08-1.5,2.46-2.77,4.13-3.82,1.67-1.05,3.63-1.86,5.87-2.43,2.24-.58,4.78-.86,7.62-.86Zm.1,16.2c1.01,0,1.76-.14,2.23-.4.47-.27.71-.73.71-1.37,0-.68-.25-1.18-.76-1.52-.51-.34-1.23-.51-2.18-.51s-1.72.17-2.23.51c-.5.34-.76.84-.76,1.52,0,.57.24,1.01.73,1.31.49.3,1.24.46,2.25.46Z"/>
      <path class="cls-1" d="m136.93,71.83c-2.9,0-5.3-.09-7.19-.28-1.89-.19-3.39-.49-4.51-.94-1.11-.44-1.95-1-2.51-1.67-.56-.67-.97-1.53-1.24-2.58-.24-.78-.4-1.59-.5-2.43-.1-.84-.17-1.75-.2-2.71-.03-.96-.02-2,.05-3.11.07-1.12.15-2.33.25-3.65.1-1.25.23-2.41.38-3.49s.32-2.11.51-3.09c.19-.98.4-1.89.66-2.74s.55-1.62.89-2.33c.37-.81.82-1.5,1.34-2.08.52-.57,1.21-1.03,2.07-1.37.86-.34,1.98-.58,3.37-.73,1.38-.15,3.15-.23,5.31-.23,4.15,0,7.75.42,10.81,1.26,3.05.84,5.56,2.06,7.52,3.65,1.96,1.59,3.42,3.48,4.38,5.67.96,2.2,1.43,4.66,1.39,7.39.03,3.58-.71,6.5-2.23,8.76s-3.95,3.94-7.29,5.04c-3.34,1.1-7.76,1.64-13.26,1.64Zm-.71-19.09c0,.44.05.8.15,1.06.1.27.29.47.58.59.29.12.65.18,1.09.18,1.69,0,2.88-.16,3.57-.48s1.04-.79,1.04-1.39c0-.68-.35-1.2-1.04-1.57s-1.88-.56-3.57-.56c-.41,0-.75.06-1.04.18-.29.12-.49.33-.61.63-.12.3-.18.76-.18,1.36Z"/>
    </g>
  </g>
</svg>