<?xml version="1.0" encoding="UTF-8"?>
<svg id="Calque_2" data-name="Calque 2" xmlns="http://www.w3.org/2000/svg" viewBox="0 0 167.61 112.89">
  <defs>
    <style>
      .cls-1 {
        fill: #b194cc;
      }
    </style>
  </defs>
  <g id="Maquette">
    <g>
      <path class="cls-1" d="m13.83,15.22c0-.29-.11-.5-.33-.63-.22-.13-.58-.22-1.08-.28-2.2-.24-4.06-.56-5.58-.98-1.52-.42-2.66-1.07-3.42-1.97-.76-.89-1.14-2.2-1.14-3.93,0-1.02.19-1.98.57-2.87.38-.89,1.04-1.67,1.99-2.34.94-.67,2.26-1.19,3.95-1.55,1.69-.37,3.85-.55,6.47-.55s4.95.11,6.68.33,3.07.54,4.01.96c.94.42,1.61.91,1.99,1.48s.57,1.17.57,1.83c0,1.02-.28,1.78-.85,2.26-.56.48-1.2.73-1.91.73-.63,0-1.23-.07-1.79-.2-.56-.13-1.12-.28-1.67-.43s-1.12-.29-1.71-.41c-.59-.12-1.24-.18-1.95-.18-.45,0-.76.07-.94.22-.18.14-.28.35-.28.61,0,.21.05.37.14.49.09.12.24.21.43.28.2.07.47.12.81.18,2.2.26,4.11.65,5.72,1.16,1.61.51,2.84,1.31,3.7,2.4.85,1.09,1.28,2.65,1.28,4.7s-.47,3.87-1.42,5.25c-.94,1.38-2.5,2.4-4.68,3.09-2.18.68-5.11,1.02-8.81,1.02-3.41,0-6.1-.26-8.08-.77-1.98-.51-3.38-1.24-4.19-2.2-.81-.96-1.22-2.1-1.22-3.44,0-.94.16-1.8.49-2.58.33-.77.78-1.4,1.36-1.87.58-.47,1.27-.71,2.08-.71.76,0,1.46.09,2.08.26.63.17,1.22.37,1.77.61.55.24,1.11.45,1.69.63.58.18,1.22.28,1.93.28.39,0,.71-.07.96-.22.25-.14.37-.36.37-.65Z"/>
      <path class="cls-1" d="m49.22,13.33c0,.29.06.64.18,1.06.12.42.26.9.41,1.45.16.55.31,1.1.47,1.65.16.55.29,1.09.39,1.63.1.54.16,1.04.16,1.51,0,.92-.18,1.71-.55,2.38-.37.67-.92,1.22-1.67,1.65-.75.43-1.66.75-2.73.94-1.08.2-2.33.29-3.77.29s-2.67-.1-3.76-.31-2-.52-2.73-.94c-.73-.42-1.29-.96-1.67-1.63s-.57-1.46-.57-2.38c0-.47.05-.98.16-1.51.1-.54.24-1.08.39-1.63.16-.55.31-1.1.47-1.65.16-.55.29-1.03.41-1.45.12-.42.18-.77.18-1.06,0-.34-.05-.61-.14-.81-.09-.2-.22-.33-.39-.39-.17-.07-.36-.1-.57-.1-.24,0-.46,0-.67.02-.21.01-.4.03-.57.04-.17.01-.33.02-.49.02-.42,0-.81-.12-1.16-.37-.35-.25-.63-.67-.83-1.26-.2-.59-.29-1.42-.29-2.5,0-1.57.18-2.87.55-3.89.37-1.02,1-1.82,1.91-2.4.9-.58,2.14-.98,3.72-1.22,1.57-.24,3.59-.35,6.06-.35s4.49.12,6.07.35c1.59.24,2.82.64,3.72,1.22s1.52,1.38,1.89,2.4c.37,1.02.55,2.32.55,3.89,0,1.08-.1,1.91-.31,2.5-.21.59-.48,1.01-.81,1.26-.33.25-.7.37-1.12.37-.16,0-.33,0-.53-.02-.2-.01-.39-.03-.57-.04-.18-.01-.41-.02-.67-.02-.24,0-.43.03-.59.1-.16.07-.28.2-.37.39-.09.2-.14.47-.14.81Z"/>
      <path class="cls-1" d="m85.28,7.08c0,1.08-.17,1.94-.51,2.6-.34.66-.88,1.17-1.63,1.55-.75.38-1.74.7-2.97.96-.26.05-.49.16-.67.31-.18.16-.28.33-.28.51,0,.26.12.45.35.55.24.11.55.16.94.16h.69c.22,0,.45,0,.67-.02.22-.01.48-.02.77-.02.97,0,1.78.28,2.42.85.64.56,1.13,1.32,1.47,2.26.34.94.51,1.95.51,3.03,0,2.12-.56,3.66-1.69,4.62-1.13.96-2.98,1.44-5.54,1.44-1.63,0-3.01-.19-4.17-.57-1.15-.38-2.03-1-2.63-1.85-.6-.85-.89-1.99-.87-3.4.03-.89.01-1.64-.04-2.24-.05-.6-.15-1.07-.29-1.4-.14-.33-.32-.56-.53-.69-.21-.13-.47-.2-.79-.2-.42,0-.71.1-.88.29-.17.2-.26.48-.26.85,0,.45.04.85.12,1.22s.16.72.26,1.06c.09.34.17.72.24,1.14.07.42.1.9.1,1.45,0,1.34-.52,2.4-1.57,3.2-1.05.8-2.52,1.2-4.4,1.2-2.67,0-4.71-.39-6.09-1.16-1.39-.77-2.29-2.1-2.71-3.99-.16-.65-.28-1.34-.35-2.04-.08-.71-.12-1.42-.14-2.12-.01-.71,0-1.42.04-2.12s.1-1.39.18-2.04c.08-.68.18-1.38.31-2.08.13-.71.27-1.42.41-2.12.14-.71.32-1.4.53-2.08.21-.68.45-1.34.71-1.97.42-1.1,1.07-1.96,1.95-2.58.88-.62,2.12-1.04,3.74-1.28,1.61-.24,3.73-.35,6.35-.35,4.01,0,7.2.26,9.57.79,2.37.52,4.08,1.32,5.13,2.38,1.05,1.06,1.57,2.37,1.57,3.91Zm-17.3,1.77c0,.37.06.67.18.9s.31.4.59.49c.28.09.65.14,1.12.14.76,0,1.36-.05,1.79-.16.43-.1.75-.26.94-.45s.29-.47.29-.81c0-.55-.26-.94-.79-1.16-.52-.22-1.42-.33-2.67-.33-.34,0-.62.03-.85.1-.22.07-.38.19-.47.37-.09.18-.14.48-.14.9Z"/>
      <path class="cls-1" d="m101.75,25.91c-2.65,0-4.81-.09-6.49-.28-1.68-.18-2.99-.47-3.93-.87-.94-.39-1.64-.92-2.08-1.57-.45-.65-.77-1.44-.98-2.36-.13-.68-.22-1.37-.28-2.06-.05-.69-.09-1.4-.12-2.12-.03-.72-.01-1.44.04-2.14.05-.71.12-1.39.2-2.04.08-.68.18-1.38.3-2.08.12-.71.25-1.42.39-2.12.14-.71.31-1.4.51-2.08.2-.68.41-1.35.65-2,.31-.79.67-1.45,1.08-1.99.41-.54,1-.96,1.77-1.28.77-.31,1.83-.54,3.18-.69,1.35-.14,3.06-.22,5.13-.22,2.91,0,5.18.05,6.82.16,1.64.11,2.85.31,3.64.61.79.3,1.29.72,1.51,1.26.22.54.33,1.21.33,2.03,0,.76-.09,1.39-.26,1.89-.17.5-.43.88-.77,1.14-.34.26-.8.39-1.38.39-.94-.03-1.74-.08-2.4-.18-.66-.09-1.28-.18-1.89-.28-.6-.09-1.3-.14-2.08-.14-.26,0-.49.03-.69.1-.2.07-.35.17-.47.31-.12.14-.18.36-.18.65,0,.26.1.48.3.65.2.17.52.26.96.26.63,0,1.2-.02,1.71-.06s1-.1,1.47-.18c.47-.08.94-.14,1.42-.18.47-.04.98-.06,1.53-.06.79,0,1.34.22,1.67.67.33.45.49,1.17.49,2.16,0,.76-.17,1.38-.51,1.85-.34.47-.92.71-1.73.71-.47,0-.93-.01-1.38-.04-.45-.03-.92-.05-1.42-.08-.5-.03-1.02-.05-1.55-.08-.54-.03-1.12-.04-1.75-.04-.45,0-.77.09-.96.26-.2.17-.3.4-.3.69,0,.21.05.39.16.53.1.14.25.24.43.3.18.05.38.08.59.08.84,0,1.59-.05,2.26-.14s1.4-.19,2.18-.3c.79-.1,1.76-.16,2.91-.16.71,0,1.3.14,1.77.43s.83.77,1.08,1.45c.25.68.37,1.63.37,2.83,0,1.31-.16,2.39-.49,3.22-.33.84-.94,1.48-1.85,1.93-.9.45-2.23.77-3.99.96-1.76.2-4.08.29-6.96.29Z"/>
      <path class="cls-1" d="m129.36,25.91c-2.65,0-4.81-.09-6.49-.28-1.68-.18-2.99-.47-3.93-.87-.94-.39-1.64-.92-2.08-1.57-.45-.65-.77-1.44-.98-2.36-.13-.68-.22-1.37-.28-2.06-.05-.69-.09-1.4-.12-2.12-.03-.72-.01-1.44.04-2.14.05-.71.12-1.39.2-2.04.08-.68.18-1.38.3-2.08.12-.71.25-1.42.39-2.12.14-.71.31-1.4.51-2.08.2-.68.41-1.35.65-2,.31-.79.67-1.45,1.08-1.99.41-.54,1-.96,1.77-1.28.77-.31,1.83-.54,3.18-.69,1.35-.14,3.06-.22,5.13-.22,2.91,0,5.18.05,6.82.16,1.64.11,2.85.31,3.64.61.79.3,1.29.72,1.51,1.26.22.54.33,1.21.33,2.03,0,.76-.09,1.39-.26,1.89-.17.5-.43.88-.77,1.14-.34.26-.8.39-1.38.39-.94-.03-1.74-.08-2.4-.18-.66-.09-1.28-.18-1.89-.28-.6-.09-1.3-.14-2.08-.14-.26,0-.49.03-.69.1-.2.07-.35.17-.47.31-.12.14-.18.36-.18.65,0,.26.1.48.3.65.2.17.52.26.96.26.63,0,1.2-.02,1.71-.06s1-.1,1.47-.18c.47-.08.94-.14,1.42-.18.47-.04.98-.06,1.53-.06.79,0,1.34.22,1.67.67.33.45.49,1.17.49,2.16,0,.76-.17,1.38-.51,1.85-.34.47-.92.71-1.73.71-.47,0-.93-.01-1.38-.04-.45-.03-.92-.05-1.42-.08-.5-.03-1.02-.05-1.55-.08-.54-.03-1.12-.04-1.75-.04-.45,0-.77.09-.96.26-.2.17-.3.4-.3.69,0,.21.05.39.16.53.1.14.25.24.43.3.18.05.38.08.59.08.84,0,1.59-.05,2.26-.14s1.4-.19,2.18-.3c.79-.1,1.76-.16,2.91-.16.71,0,1.3.14,1.77.43s.83.77,1.08,1.45c.25.68.37,1.63.37,2.83,0,1.31-.16,2.39-.49,3.22-.33.84-.94,1.48-1.85,1.93-.9.45-2.23.77-3.99.96-1.76.2-4.08.29-6.96.29Z"/>
      <path class="cls-1" d="m162.5,13.33c0,.29.06.64.18,1.06.12.42.26.9.41,1.45.16.55.31,1.1.47,1.65.16.55.29,1.09.39,1.63s.16,1.04.16,1.51c0,.92-.18,1.71-.55,2.38s-.92,1.22-1.67,1.65c-.75.43-1.66.75-2.73.94s-2.33.29-3.77.29-2.67-.1-3.76-.31-2-.52-2.73-.94c-.73-.42-1.29-.96-1.67-1.63s-.57-1.46-.57-2.38c0-.47.05-.98.16-1.51.1-.54.24-1.08.39-1.63.16-.55.31-1.1.47-1.65.16-.55.29-1.03.41-1.45.12-.42.18-.77.18-1.06,0-.34-.05-.61-.14-.81-.09-.2-.22-.33-.39-.39-.17-.07-.36-.1-.57-.1-.24,0-.46,0-.67.02-.21.01-.4.03-.57.04-.17.01-.33.02-.49.02-.42,0-.81-.12-1.16-.37-.35-.25-.63-.67-.83-1.26-.2-.59-.29-1.42-.29-2.5,0-1.57.18-2.87.55-3.89.37-1.02,1-1.82,1.91-2.4.9-.58,2.14-.98,3.72-1.22,1.57-.24,3.59-.35,6.06-.35s4.49.12,6.08.35c1.59.24,2.82.64,3.72,1.22s1.52,1.38,1.89,2.4c.37,1.02.55,2.32.55,3.89,0,1.08-.1,1.91-.31,2.5-.21.59-.48,1.01-.81,1.26s-.7.37-1.12.37c-.16,0-.33,0-.53-.02-.2-.01-.39-.03-.57-.04-.18-.01-.41-.02-.67-.02-.24,0-.43.03-.59.1-.16.07-.28.2-.37.39-.09.2-.14.47-.14.81Z"/>
      <path class="cls-1" d="m21.47,36.49c2.55,0,4.61.2,6.19.61,1.57.41,2.85,1.06,3.83,1.95.98.89,1.81,2.04,2.5,3.45.5.91.95,1.94,1.33,3.08.39,1.14.73,2.37,1.03,3.69.3,1.32.57,2.72.82,4.2.25,1.48.47,3.04.65,4.68.18,1.82.26,3.56.24,5.2-.02,1.64-.14,3.2-.34,4.68s-.55,2.84-1.03,4.07c-.48,1.23-1.06,2.35-1.74,3.35-.68,1.37-1.67,2.53-2.97,3.49-1.3.96-2.92,1.68-4.85,2.15-1.94.48-4.2.72-6.8.72-7.29,0-12.5-1.41-15.62-4.24-3.12-2.82-4.68-6.88-4.68-12.17,0-2.05.18-3.91.55-5.57.36-1.66.88-3.08,1.54-4.24.66-1.16,1.45-2.06,2.36-2.7.91-.64,1.91-.96,3.01-.96.23,0,.49.02.79.07.3.05.59.11.89.21.3.09.59.16.89.2.3.05.63.07.99.07.41,0,.74-.11.99-.34.25-.23.42-.55.51-.96.09-.41.09-.91,0-1.5-.09-.59-.32-1.23-.68-1.91-.87-1.32-1.38-2.64-1.54-3.96-.16-1.32.11-2.53.82-3.62.71-1.09,1.9-1.98,3.59-2.67,1.69-.68,3.94-1.03,6.77-1.03Z"/>
      <path class="cls-1" d="m68.37,36.42c4.74,0,8.72.42,11.93,1.27,3.21.84,5.8,2.15,7.76,3.93,1.96,1.78,3.46,4.09,4.51,6.94,1.05,2.85,1.78,6.3,2.19,10.36.27,1.18.51,2.31.72,3.38.2,1.07.36,2.09.48,3.04.11.96.2,1.89.27,2.8.07.91.08,1.8.03,2.67-.05.87-.14,1.76-.27,2.67-.27,1.73-.89,3.21-1.85,4.44-.96,1.23-2.44,2.14-4.44,2.73-2.01.59-4.65.89-7.93.89-2.83,0-5.13-.32-6.91-.96-1.78-.64-3.04-1.53-3.79-2.67-.75-1.14-1.13-2.44-1.13-3.9,0-.87.01-1.62.03-2.26.02-.64.06-1.21.1-1.71.05-.5.09-.96.14-1.37.05-.41.09-.83.14-1.26.05-.43.07-.88.07-1.33,0-.5-.06-.95-.17-1.33-.11-.39-.32-.68-.62-.89-.3-.2-.72-.31-1.26-.31s-.98.1-1.3.31c-.32.2-.54.5-.65.89-.11.39-.17.83-.17,1.33,0,.46.01.9.03,1.33.02.43.06.85.1,1.26.05.41.09.87.14,1.37.05.5.08,1.07.1,1.71.02.64.03,1.39.03,2.26,0,1.46-.37,2.76-1.09,3.9-.73,1.14-1.96,2.03-3.69,2.67-1.73.64-4.06.96-6.97.96-3.28,0-5.93-.3-7.93-.89-2.01-.59-3.49-1.5-4.44-2.73-.96-1.23-1.57-2.71-1.85-4.44-.09-.91-.17-1.8-.24-2.67-.07-.86-.07-1.75,0-2.67.07-.91.16-1.85.27-2.8.11-.96.27-1.97.48-3.04.2-1.07.44-2.2.72-3.38.46-4.06,1.21-7.51,2.26-10.36,1.05-2.85,2.56-5.16,4.55-6.94,1.98-1.78,4.57-3.09,7.76-3.93,3.19-.84,7.15-1.27,11.9-1.27Zm0,17.43c1.78,0,2.93-.1,3.45-.31s.79-.74.79-1.61c0-.96-.36-1.59-1.09-1.91-.73-.32-1.78-.48-3.14-.48s-2.42.16-3.14.48c-.73.32-1.09.96-1.09,1.91,0,.87.26,1.4.79,1.61.52.2,1.67.31,3.45.31Z"/>
      <path class="cls-1" d="m132.5,48.73c1.05,0,1.81-.22,2.29-.65.48-.43.81-1.04.99-1.81.18-.77.32-1.64.41-2.6-.05-.96.02-1.87.21-2.74.18-.86.65-1.63,1.4-2.29.75-.66,1.97-1.18,3.66-1.57,1.69-.39,4.03-.58,7.04-.58,3.19,0,5.72.22,7.59.65,1.87.43,3.33,1.08,4.38,1.95,1.05.87,1.89,1.98,2.53,3.35.32.77.64,1.61.96,2.5.32.89.58,1.82.79,2.8.2.98.41,2.02.62,3.11.2,1.09.39,2.26.55,3.49.16,1.23.31,2.51.44,3.83.09,1.41.16,2.74.2,3.97.05,1.23.07,2.41.07,3.52s-.03,2.19-.1,3.21c-.07,1.03-.16,1.97-.27,2.84-.11.87-.29,1.71-.51,2.53-.59,2.46-1.77,4.3-3.52,5.5-1.76,1.21-4.48,1.81-8.17,1.81-2.32,0-4.16-.27-5.5-.82-1.34-.55-2.3-1.33-2.87-2.36-.57-1.03-.83-2.22-.79-3.59-.05-.91-.02-1.77.07-2.56.09-.8.22-1.57.38-2.32.16-.75.31-1.48.44-2.19.14-.71.25-1.4.34-2.09.09-.68.11-1.41.07-2.19.05-.36-.01-.67-.17-.92-.16-.25-.37-.47-.62-.65-.25-.18-.58-.27-.99-.27-.36,0-.67.06-.92.17-.25.11-.46.29-.61.51-.16.23-.27.48-.34.75-.07.27-.1.57-.1.89,0,1.23.02,2.35.07,3.35.05,1,.1,2.01.17,3.01.07,1,.12,2.12.17,3.35-.05,1.46-.33,2.76-.85,3.9-.52,1.14-1.53,2.03-3.01,2.67-1.48.64-3.63.96-6.46.96s-4.98-.32-6.46-.96c-1.48-.64-2.49-1.53-3.01-2.67-.52-1.14-.79-2.44-.79-3.9,0-1.23.02-2.35.07-3.35.05-1,.1-2,.17-3.01s.1-2.12.1-3.35c0-.32-.03-.61-.1-.89-.07-.27-.18-.52-.34-.75-.16-.23-.38-.4-.65-.51-.27-.11-.57-.17-.89-.17-.37,0-.7.09-.99.27-.3.18-.51.4-.65.65-.14.25-.2.56-.2.92,0,.77.06,1.5.17,2.19.11.68.23,1.38.34,2.09.11.71.25,1.43.41,2.19.16.75.27,1.53.34,2.32.07.8.1,1.65.1,2.56,0,1.37-.27,2.56-.82,3.59-.55,1.02-1.49,1.81-2.84,2.36-1.34.55-3.18.82-5.5.82-3.69,0-6.4-.6-8.14-1.81-1.73-1.21-2.92-3.04-3.55-5.5-.23-.82-.41-1.66-.55-2.53-.14-.87-.23-1.81-.27-2.84-.05-1.02-.08-2.1-.1-3.21-.02-1.12.01-2.29.1-3.52.09-1.23.18-2.55.27-3.97.09-1.32.22-2.6.38-3.83.16-1.23.34-2.39.55-3.49.2-1.09.42-2.13.65-3.11.23-.98.48-1.91.75-2.8.27-.89.59-1.72.96-2.5.64-1.37,1.48-2.48,2.53-3.35,1.05-.86,2.52-1.51,4.41-1.95,1.89-.43,4.41-.65,7.55-.65s5.36.19,7.04.58c1.69.39,2.91.91,3.66,1.57.75.66,1.21,1.43,1.37,2.29.16.87.26,1.78.31,2.74.04.96.16,1.82.34,2.6.18.77.52,1.38,1.03,1.81.5.43,1.25.65,2.26.65Z"/>
      <path class="cls-1" d="m16.1,109.97c0,.55-.09,1.02-.26,1.39-.17.37-.52.67-1.03.89-.51.23-1.28.38-2.29.48-1.02.09-2.33.14-3.96.14-1.87,0-3.36-.13-4.46-.38s-1.93-.69-2.48-1.29c-.54-.61-.91-1.39-1.09-2.36-.1-.51-.17-1.04-.22-1.58-.04-.54-.07-1.1-.08-1.66-.01-.56,0-1.12.03-1.68s.08-1.09.14-1.6c.06-.53.14-1.07.23-1.62s.2-1.09.32-1.65c.12-.55.26-1.1.4-1.63.14-.53.31-1.07.49-1.6.21-.59.47-1.1.8-1.52.33-.42.8-.76,1.4-1.02.61-.26,1.41-.44,2.42-.55,1.01-.11,2.29-.17,3.85-.17,1.97,0,3.6.03,4.88.09,1.28.06,2.31.15,3.08.28.77.12,1.34.3,1.72.54.38.24.63.53.74.89.11.36.17.8.17,1.31,0,.8-.08,1.47-.23,2-.15.53-.37.94-.66,1.22-.29.28-.67.42-1.14.42-.86,0-1.55-.03-2.08-.08-.52-.05-1.02-.11-1.48-.17s-1.01-.09-1.65-.09c-.23,0-.42.02-.58.06-.16.04-.3.12-.4.25-.1.12-.15.28-.15.46s.04.32.11.42c.07.09.18.16.34.2.15.04.34.06.57.06.53,0,1.01-.02,1.42-.05.41-.03.81-.07,1.2-.11.39-.04.77-.07,1.15-.09.38-.02.8-.03,1.28-.03.74,0,1.22.25,1.45.74.23.49.34,1.29.34,2.4,0,.88-.14,1.63-.42,2.23-.28.61-.72.91-1.34.91-.21,0-.42,0-.65-.02-.23-.01-.46-.01-.71,0-.25.01-.5.01-.77,0-.27-.01-.55-.02-.86-.02-.27,0-.46.06-.57.17-.11.11-.17.25-.17.42,0,.1.04.25.12.43.08.18.18.38.31.58.12.21.24.42.35.63.11.22.21.44.29.68.08.24.12.47.12.69Z"/>
      <path class="cls-1" d="m32.32,112.83c-2.07,0-3.77-.07-5.08-.22-1.31-.14-2.34-.37-3.08-.68-.74-.31-1.28-.72-1.63-1.23-.35-.51-.61-1.13-.77-1.85-.1-.53-.17-1.07-.22-1.62-.04-.54-.07-1.1-.09-1.66-.02-.56-.01-1.12.03-1.68.04-.55.09-1.09.15-1.6.06-.53.14-1.08.23-1.63.09-.55.19-1.11.31-1.66.11-.55.25-1.1.4-1.63.15-.53.32-1.06.51-1.57.25-.62.53-1.13.85-1.55.32-.42.78-.75,1.39-1,.61-.25,1.44-.43,2.49-.54,1.06-.11,2.4-.17,4.02-.17,2.28,0,4.06.04,5.34.12,1.28.08,2.23.24,2.85.48.62.24,1.01.56,1.18.98.17.42.26.95.26,1.59,0,.59-.07,1.09-.2,1.48-.13.39-.33.69-.6.89-.27.21-.63.31-1.08.31-.74-.02-1.36-.07-1.88-.14-.51-.07-1.01-.14-1.48-.22-.47-.07-1.02-.11-1.63-.11-.21,0-.38.03-.54.08-.15.05-.28.13-.37.25-.09.11-.14.28-.14.51,0,.2.08.37.23.51.15.13.4.2.75.2.49,0,.94-.02,1.34-.05s.79-.08,1.15-.14c.37-.06.74-.11,1.11-.14.37-.03.77-.05,1.2-.05.62,0,1.05.17,1.31.52.26.35.38.91.38,1.69,0,.6-.13,1.08-.4,1.45-.27.37-.72.55-1.35.55-.37,0-.73,0-1.08-.03-.35-.02-.72-.04-1.11-.06-.39-.02-.8-.04-1.22-.06-.42-.02-.88-.03-1.37-.03-.35,0-.6.07-.75.2-.15.13-.23.31-.23.54,0,.16.04.3.12.42.08.11.2.19.34.23.14.04.3.06.46.06.66,0,1.25-.04,1.77-.11s1.09-.15,1.71-.23c.62-.08,1.37-.12,2.28-.12.55,0,1.02.11,1.39.34s.65.61.85,1.14c.19.53.29,1.27.29,2.22,0,1.03-.13,1.87-.38,2.52-.26.66-.74,1.16-1.45,1.51-.71.35-1.75.6-3.12.75-1.38.15-3.19.23-5.45.23Z"/>
      <path class="cls-1" d="m53.16,104.46c0-.23-.09-.39-.26-.49-.17-.1-.46-.17-.85-.22-1.72-.18-3.18-.44-4.37-.77-1.19-.33-2.08-.84-2.68-1.54-.6-.7-.89-1.72-.89-3.08,0-.8.15-1.55.45-2.25.3-.7.82-1.31,1.55-1.83.74-.52,1.77-.93,3.09-1.22,1.32-.29,3.01-.43,5.06-.43s3.88.09,5.23.26,2.4.43,3.14.75c.74.33,1.26.71,1.55,1.15s.45.92.45,1.43c0,.8-.22,1.39-.66,1.77-.44.38-.94.57-1.49.57-.49,0-.96-.05-1.4-.15-.44-.1-.88-.22-1.31-.34s-.88-.23-1.34-.32c-.46-.09-.97-.14-1.52-.14-.35,0-.6.06-.74.17-.14.11-.22.27-.22.48,0,.16.04.29.11.39.07.09.18.16.34.22.15.05.36.1.63.14,1.72.21,3.22.51,4.48.91,1.26.4,2.23,1.03,2.89,1.88.67.85,1,2.08,1,3.68s-.37,3.03-1.11,4.11c-.74,1.08-1.96,1.88-3.66,2.42-1.7.53-4,.8-6.89.8-2.67,0-4.78-.2-6.33-.6-1.55-.4-2.64-.97-3.28-1.72-.64-.75-.95-1.65-.95-2.69,0-.74.13-1.41.38-2.02.26-.61.61-1.09,1.06-1.46.45-.37,1-.55,1.63-.55.59,0,1.14.07,1.63.2.49.13.95.29,1.38.48.43.18.87.35,1.32.49.45.14.95.22,1.51.22.31,0,.56-.06.75-.17.19-.11.29-.28.29-.51Z"/>
      <path class="cls-1" d="m80.86,102.98c0,.23.05.5.14.83.09.33.2.71.32,1.14.12.43.25.86.37,1.29.12.43.23.86.31,1.28.08.42.12.82.12,1.18,0,.72-.14,1.34-.43,1.86-.29.52-.72.95-1.31,1.29-.58.34-1.3.59-2.14.74-.84.15-1.83.23-2.95.23s-2.09-.08-2.94-.25-1.56-.41-2.14-.74c-.57-.33-1.01-.75-1.31-1.28s-.45-1.14-.45-1.86c0-.37.04-.76.12-1.18.08-.42.18-.85.31-1.28.12-.43.25-.86.37-1.29.12-.43.23-.81.32-1.14.09-.33.14-.61.14-.83,0-.27-.04-.48-.11-.63-.07-.15-.17-.26-.31-.31-.13-.05-.28-.08-.45-.08-.18,0-.36,0-.52.02-.16.01-.31.02-.45.03-.13.01-.26.02-.38.02-.33,0-.63-.1-.91-.29-.28-.2-.49-.52-.65-.98-.15-.46-.23-1.11-.23-1.95,0-1.23.14-2.25.43-3.05.29-.8.78-1.43,1.49-1.88.71-.45,1.68-.77,2.91-.95,1.23-.19,2.81-.28,4.74-.28s3.51.09,4.76.28c1.24.18,2.21.5,2.91.95s1.19,1.08,1.48,1.88c.29.8.43,1.82.43,3.05,0,.84-.08,1.49-.25,1.95-.16.46-.37.79-.63.98-.26.2-.55.29-.88.29-.12,0-.26,0-.42-.02-.15,0-.3-.02-.45-.03-.14,0-.32-.02-.52-.02-.18,0-.34.03-.46.08-.12.05-.22.15-.29.31-.07.15-.11.36-.11.63Z"/>
      <path class="cls-1" d="m91.36,92.52c1.15,0,2.07.22,2.77.65.7.43,1.25,1.12,1.66,2.06.16.33.31.69.45,1.09.13.4.25.82.35,1.26.1.44.2.91.29,1.42.09.5.17,1.03.25,1.57.07.54.13,1.11.17,1.71.04.62.08,1.21.12,1.77.04.56.06,1.1.06,1.6s-.02.98-.05,1.45c-.03.46-.08.89-.14,1.28s-.14.77-.25,1.14c-.18.76-.51,1.38-.97,1.88-.46.49-1.08.86-1.85,1.09-.77.24-1.73.35-2.88.35s-2.11-.12-2.88-.35c-.77-.24-1.38-.6-1.83-1.09-.45-.49-.78-1.12-.98-1.88-.1-.37-.18-.75-.25-1.14-.06-.39-.11-.82-.14-1.28-.03-.46-.05-.94-.05-1.45s.02-1.04.06-1.6c.04-.56.08-1.15.12-1.77.04-.59.1-1.16.17-1.71.07-.54.15-1.07.23-1.57.08-.5.18-.97.29-1.42.11-.44.24-.86.37-1.26.13-.4.27-.76.42-1.09.43-.94,1-1.63,1.69-2.06.7-.43,1.62-.65,2.77-.65Z"/>
      <path class="cls-1" d="m110.44,100.33c.43,0,.75-.11.95-.34.2-.23.36-.57.46-1.03.1-.46.2-.99.31-1.59.04-.57.1-1.15.17-1.72.07-.57.24-1.1.49-1.57.26-.47.69-.85,1.31-1.14.62-.29,1.5-.43,2.65-.43.96,0,1.74.06,2.34.18.59.12,1.07.29,1.43.49.36.21.67.43.94.68.29.29.53.61.74.95.2.35.37.72.49,1.12.12.4.21.8.26,1.2s.07.79.05,1.15c.02.82-.06,1.77-.23,2.85-.17,1.08-.48,2.22-.92,3.42-.44,1.2-1.1,2.44-1.99,3.71-.88,1.23-1.8,2.18-2.74,2.85s-1.96,1.13-3.06,1.38c-1.1.26-2.31.38-3.65.38s-2.55-.13-3.65-.4c-1.1-.27-2.12-.73-3.06-1.38-.94-.66-1.86-1.6-2.74-2.83-.86-1.27-1.52-2.51-1.99-3.72s-.77-2.35-.94-3.42c-.16-1.07-.24-2.01-.22-2.83-.02-.39,0-.79.05-1.18.05-.4.13-.79.25-1.18.11-.39.28-.76.49-1.11.22-.35.47-.67.75-.95.27-.25.58-.47.94-.68.36-.2.84-.37,1.43-.49.59-.12,1.37-.18,2.34-.18,1.13,0,2,.14,2.62.43s1.05.67,1.31,1.14c.26.47.43,1,.51,1.57.08.58.14,1.15.18,1.72.12.6.23,1.12.32,1.57.09.45.24.8.45,1.03.2.24.52.35.95.35Z"/>
      <path class="cls-1" d="m135.65,92.49c2.13,0,3.92.19,5.37.57,1.45.38,2.61.97,3.49,1.77.88.8,1.56,1.84,2.03,3.12.47,1.28.8,2.84.98,4.66.12.53.23,1.04.32,1.52.09.48.16.94.22,1.37.05.43.09.85.12,1.26.03.41.04.81.02,1.2-.02.39-.06.79-.12,1.2-.12.78-.4,1.45-.83,2-.43.55-1.1.96-2,1.23-.9.27-2.09.4-3.57.4-1.27,0-2.31-.14-3.11-.43-.8-.29-1.37-.69-1.71-1.2-.34-.51-.51-1.1-.51-1.75,0-.39,0-.73.02-1.02s.03-.54.05-.77.04-.43.06-.62.04-.37.06-.57.03-.39.03-.6c0-.23-.03-.43-.08-.6-.05-.17-.14-.31-.28-.4s-.32-.14-.57-.14-.44.05-.59.14c-.14.09-.24.23-.29.4-.05.17-.08.37-.08.6,0,.21,0,.41.02.6,0,.2.03.38.05.57.02.18.04.39.06.62.02.23.04.48.05.77,0,.29.02.63.02,1.02,0,.66-.16,1.24-.49,1.75-.33.51-.88.91-1.66,1.2-.78.29-1.83.43-3.14.43-1.48,0-2.67-.13-3.57-.4-.9-.27-1.57-.68-2-1.23-.43-.55-.71-1.22-.83-2-.04-.41-.08-.81-.11-1.2-.03-.39-.03-.79,0-1.2.03-.41.07-.83.12-1.26.05-.43.12-.89.22-1.37.09-.48.2-.99.32-1.52.2-1.83.54-3.38,1.02-4.66.47-1.28,1.15-2.32,2.05-3.12.89-.8,2.06-1.39,3.49-1.77,1.44-.38,3.22-.57,5.36-.57Zm0,7.85c.8,0,1.32-.05,1.55-.14.24-.09.35-.33.35-.72,0-.43-.16-.72-.49-.86-.33-.14-.8-.22-1.42-.22s-1.09.07-1.42.22c-.33.14-.49.43-.49.86,0,.39.12.63.35.72.24.09.75.14,1.55.14Z"/>
      <path class="cls-1" d="m163.26,99.9c.68,0,1.27.18,1.77.55.5.37.89,1.02,1.17,1.94.28.92.42,2.22.42,3.88s-.3,3.03-.91,3.97c-.61.94-1.59,1.6-2.94,1.97-1.35.37-3.16.55-5.42.55-1.62,0-2.94-.13-3.96-.4s-1.78-.65-2.29-1.14c-.51-.49-.87-1.07-1.08-1.72-.2-.49-.37-1.02-.49-1.59-.12-.56-.21-1.16-.25-1.79-.04-.63-.06-1.26-.06-1.89s.03-1.24.09-1.82.14-1.15.23-1.72.2-1.16.32-1.75c.12-.59.28-1.18.46-1.77s.4-1.16.65-1.74c.45-1.07,1.09-1.82,1.91-2.26s1.99-.66,3.51-.66c1.17,0,2.09.11,2.77.32.68.22,1.16.54,1.46.98.3.44.47,1.02.51,1.74,0,.29,0,.56-.02.82-.01.26-.03.51-.06.75s-.07.48-.12.71c-.05.23-.09.44-.11.63-.02.2-.02.39,0,.57.04.35.16.59.35.71s.4.18.63.18c.25,0,.47,0,.66-.02s.46-.02.79-.02Z"/>
    </g>
  </g>
</svg>