<?xml version="1.0" encoding="UTF-8"?>
<svg id="Calque_2" data-name="Calque 2" xmlns="http://www.w3.org/2000/svg" viewBox="0 0 157.83 31.77">
  <defs>
    <style>
      .cls-1 {
        fill: #b194cc;
      }
    </style>
  </defs>
  <g id="Maquette">
    <g>
      <path class="cls-1" d="m18.79,31.77c-3.68,0-6.74-.11-9.18-.31-2.44-.21-4.36-.55-5.77-1.03-1.41-.48-2.4-1.19-2.98-2.11s-.87-2.11-.87-3.56.2-2.56.6-3.56c.4-.99,1-1.77,1.8-2.33.8-.56,1.76-.84,2.88-.84,1.31,0,2.53.05,3.65.15,1.12.09,2.18.19,3.17.29s1.95.15,2.88.15c.48,0,.88-.1,1.2-.29.32-.19.48-.56.48-1.11,0-.45-.14-.76-.41-.94-.27-.18-.59-.26-.94-.26-.61,0-1.24.03-1.9.1s-1.36.14-2.11.21c-.75.08-1.59.12-2.52.12-1.86,0-3.28-.26-4.28-.79-.99-.53-1.75-1.29-2.26-2.28-.38-.64-.64-1.36-.77-2.16-.13-.8-.16-1.65-.1-2.55.03-.41.09-.85.17-1.3s.17-.87.26-1.27c.1-.4.18-.78.26-1.15.08-.37.2-.71.36-1.03.42-1.41,1.19-2.39,2.33-2.95S7.48.1,9.47.1c1.25,0,2.29.08,3.12.24.83.16,1.51.4,2.02.72.51.32.9.71,1.18,1.15.27.45.46.93.55,1.44.1.51.16,1.04.19,1.59-.03.42-.02.83.05,1.25.06.41.18.78.34,1.08.16.31.42.55.77.75.35.19.82.29,1.39.29.54,0,.99-.1,1.32-.29.34-.19.58-.44.74-.75.16-.3.26-.65.31-1.06.05-.4.07-.82.07-1.27,0-.64.05-1.28.14-1.92.1-.64.34-1.21.74-1.71.4-.5,1.03-.89,1.9-1.18.86-.29,2.05-.43,3.56-.43,2.05,0,3.62.35,4.71,1.03,1.09.69,1.95,1.74,2.59,3.15.29.7.56,1.45.82,2.24.26.79.47,1.64.65,2.57.18.93.33,1.92.46,2.96.13,1.04.26,2.14.39,3.29.1.93.14,1.83.14,2.69s-.03,1.68-.1,2.45c-.07.77-.15,1.5-.26,2.19-.11.69-.26,1.34-.43,1.95-.18.61-.38,1.15-.6,1.63-.42.96-1,1.79-1.75,2.47-.75.69-1.79,1.27-3.1,1.73-1.31.46-3,.82-5.05,1.06-2.05.24-4.56.36-7.54.36Z"/>
      <path class="cls-1" d="m58.82,0c3.33,0,6.13.3,8.39.89s4.08,1.51,5.45,2.76,2.43,2.87,3.17,4.88c.74,2,1.25,4.43,1.54,7.28.19.83.36,1.63.5,2.38.14.75.26,1.47.34,2.14.08.67.14,1.33.19,1.97.05.64.06,1.26.02,1.87-.03.61-.1,1.23-.19,1.87-.19,1.22-.62,2.26-1.3,3.12-.67.86-1.72,1.51-3.12,1.92-1.41.42-3.27.62-5.57.62-1.99,0-3.6-.22-4.85-.67-1.25-.45-2.14-1.07-2.67-1.87s-.79-1.71-.79-2.74c0-.61,0-1.14.02-1.59s.04-.85.07-1.2c.03-.35.06-.67.1-.96.03-.29.06-.58.1-.89.03-.3.05-.62.05-.94,0-.35-.04-.66-.12-.94-.08-.27-.22-.48-.43-.62-.21-.15-.51-.22-.89-.22s-.69.07-.91.22c-.22.14-.38.35-.46.62-.08.27-.12.58-.12.94,0,.32,0,.63.02.94.02.31.04.6.07.89.03.29.06.61.1.96.03.35.06.75.07,1.2s.02.98.02,1.59c0,1.03-.26,1.94-.77,2.74s-1.38,1.43-2.59,1.87c-1.22.45-2.85.67-4.9.67-2.31,0-4.17-.21-5.57-.62-1.41-.41-2.45-1.06-3.12-1.92s-1.11-1.91-1.3-3.12c-.06-.64-.12-1.26-.17-1.87-.05-.61-.05-1.23,0-1.87.05-.64.11-1.3.19-1.97.08-.67.19-1.39.34-2.14.14-.75.31-1.54.51-2.38.32-2.85.85-5.28,1.59-7.28.74-2,1.8-3.63,3.19-4.88,1.39-1.25,3.21-2.17,5.45-2.76,2.24-.59,5.03-.89,8.36-.89Zm0,12.25c1.25,0,2.06-.07,2.43-.21.37-.14.55-.52.55-1.13,0-.67-.26-1.12-.77-1.35-.51-.22-1.25-.34-2.21-.34s-1.7.11-2.21.34c-.51.22-.77.67-.77,1.35,0,.61.18.99.55,1.13.37.14,1.18.21,2.43.21Z"/>
      <path class="cls-1" d="m98.17,31.77c-3.68,0-6.74-.11-9.18-.31-2.44-.21-4.36-.55-5.77-1.03-1.41-.48-2.4-1.19-2.98-2.11s-.87-2.11-.87-3.56.2-2.56.6-3.56c.4-.99,1-1.77,1.8-2.33.8-.56,1.76-.84,2.88-.84,1.31,0,2.53.05,3.65.15,1.12.09,2.18.19,3.17.29s1.95.15,2.88.15c.48,0,.88-.1,1.2-.29.32-.19.48-.56.48-1.11,0-.45-.14-.76-.41-.94-.27-.18-.59-.26-.94-.26-.61,0-1.24.03-1.9.1s-1.36.14-2.11.21c-.75.08-1.59.12-2.52.12-1.86,0-3.28-.26-4.28-.79s-1.75-1.29-2.26-2.28c-.38-.64-.64-1.36-.77-2.16-.13-.8-.16-1.65-.1-2.55.03-.41.09-.85.17-1.3s.17-.87.26-1.27c.1-.4.18-.78.26-1.15.08-.37.2-.71.36-1.03.42-1.41,1.19-2.39,2.33-2.95s2.7-.84,4.69-.84c1.25,0,2.29.08,3.12.24.83.16,1.51.4,2.02.72.51.32.9.71,1.18,1.15.27.45.46.93.55,1.44.1.51.16,1.04.19,1.59-.03.42-.02.83.05,1.25.06.41.18.78.34,1.08.16.31.42.55.77.75.35.19.82.29,1.39.29.54,0,.99-.1,1.32-.29.34-.19.58-.44.74-.75.16-.3.26-.65.31-1.06.05-.4.07-.82.07-1.27,0-.64.05-1.28.14-1.92.1-.64.34-1.21.74-1.71.4-.5,1.03-.89,1.9-1.18.86-.29,2.05-.43,3.56-.43,2.05,0,3.62.35,4.71,1.03,1.09.69,1.95,1.74,2.59,3.15.29.7.56,1.45.82,2.24.26.79.47,1.64.65,2.57.18.93.33,1.92.46,2.96.13,1.04.26,2.14.39,3.29.1.93.14,1.83.14,2.69s-.03,1.68-.1,2.45c-.07.77-.15,1.5-.26,2.19-.11.69-.26,1.34-.43,1.95-.18.61-.38,1.15-.6,1.63-.42.96-1,1.79-1.75,2.47-.75.69-1.79,1.27-3.1,1.73-1.31.46-3,.82-5.05,1.06-2.05.24-4.56.36-7.54.36Z"/>
      <path class="cls-1" d="m138.2,0c3.33,0,6.13.3,8.39.89s4.08,1.51,5.45,2.76,2.43,2.87,3.17,4.88c.74,2,1.25,4.43,1.54,7.28.19.83.36,1.63.5,2.38.14.75.26,1.47.34,2.14.08.67.14,1.33.19,1.97.05.64.06,1.26.02,1.87-.03.61-.1,1.23-.19,1.87-.19,1.22-.62,2.26-1.3,3.12-.67.86-1.72,1.51-3.12,1.92-1.41.42-3.27.62-5.57.62-1.99,0-3.6-.22-4.85-.67-1.25-.45-2.14-1.07-2.67-1.87s-.79-1.71-.79-2.74c0-.61,0-1.14.02-1.59s.04-.85.07-1.2c.03-.35.06-.67.1-.96.03-.29.06-.58.1-.89.03-.3.05-.62.05-.94,0-.35-.04-.66-.12-.94-.08-.27-.22-.48-.43-.62-.21-.15-.51-.22-.89-.22s-.69.07-.91.22c-.22.14-.38.35-.46.62-.08.27-.12.58-.12.94,0,.32,0,.63.02.94.02.31.04.6.07.89.03.29.06.61.1.96.03.35.06.75.07,1.2s.02.98.02,1.59c0,1.03-.26,1.94-.77,2.74s-1.38,1.43-2.59,1.87c-1.22.45-2.85.67-4.9.67-2.31,0-4.17-.21-5.57-.62-1.41-.41-2.45-1.06-3.12-1.92-.67-.86-1.11-1.91-1.3-3.12-.06-.64-.12-1.26-.17-1.87-.05-.61-.05-1.23,0-1.87.05-.64.11-1.3.19-1.97.08-.67.19-1.39.34-2.14.14-.75.31-1.54.51-2.38.32-2.85.85-5.28,1.59-7.28.74-2,1.8-3.63,3.19-4.88,1.39-1.25,3.21-2.17,5.45-2.76,2.24-.59,5.03-.89,8.36-.89Zm0,12.25c1.25,0,2.06-.07,2.43-.21.37-.14.55-.52.55-1.13,0-.67-.26-1.12-.77-1.35-.51-.22-1.25-.34-2.21-.34s-1.7.11-2.21.34c-.51.22-.77.67-.77,1.35,0,.61.18.99.55,1.13.37.14,1.18.21,2.43.21Z"/>
    </g>
  </g>
</svg>