<?xml version="1.0" encoding="UTF-8"?>
<svg id="Calque_2" data-name="Calque 2" xmlns="http://www.w3.org/2000/svg" viewBox="0 0 156.49 77.99">
  <defs>
    <style>
      .cls-1 {
        fill: #b194cc;
      }
    </style>
  </defs>
  <g id="Maquette">
    <g>
      <path class="cls-1" d="m12.33,14.27c0-.27-.1-.47-.31-.59-.21-.12-.55-.21-1.01-.26-2.06-.22-3.81-.53-5.23-.92-1.43-.39-2.49-1.01-3.21-1.84-.71-.84-1.07-2.07-1.07-3.69,0-.96.18-1.85.54-2.69.36-.84.98-1.57,1.86-2.19.88-.63,2.12-1.11,3.7-1.46S11.2.11,13.65.11s4.64.11,6.27.31,2.88.51,3.76.9c.88.39,1.51.85,1.86,1.38s.54,1.1.54,1.71c0,.96-.26,1.67-.79,2.12-.53.46-1.12.68-1.79.68-.59,0-1.15-.06-1.68-.18s-1.05-.26-1.57-.41c-.52-.15-1.05-.28-1.6-.39-.55-.11-1.16-.17-1.82-.17-.42,0-.71.07-.88.2-.17.14-.26.33-.26.57,0,.2.04.35.13.46.09.11.22.2.41.26.18.06.44.12.75.17,2.06.25,3.85.61,5.36,1.09,1.51.48,2.67,1.23,3.47,2.25.8,1.02,1.2,2.49,1.2,4.4s-.44,3.63-1.33,4.92c-.88,1.29-2.35,2.25-4.39,2.89-2.04.64-4.79.96-8.26.96-3.2,0-5.72-.24-7.58-.72-1.86-.48-3.16-1.17-3.93-2.07-.76-.9-1.14-1.97-1.14-3.22,0-.88.15-1.69.46-2.42.31-.72.73-1.31,1.27-1.75.54-.44,1.19-.66,1.95-.66.71,0,1.36.08,1.95.24.59.16,1.14.35,1.66.57.52.22,1.04.42,1.58.59.54.17,1.14.26,1.81.26.37,0,.67-.07.9-.2.23-.14.35-.34.35-.61Z"/>
      <path class="cls-1" d="m45.5,12.5c0,.27.05.6.17.99.11.39.24.85.39,1.36.15.52.29,1.03.44,1.55.15.52.27,1.03.37,1.53.1.5.15.98.15,1.42,0,.86-.17,1.6-.52,2.23-.34.63-.87,1.14-1.57,1.55-.7.41-1.55.7-2.56.88-1.01.18-2.19.28-3.54.28s-2.5-.1-3.52-.3c-1.02-.2-1.87-.49-2.56-.88-.69-.39-1.21-.9-1.57-1.53-.36-.63-.54-1.37-.54-2.23,0-.44.05-.92.15-1.42.1-.5.22-1.01.37-1.53s.29-1.03.44-1.55c.15-.52.28-.97.39-1.36.11-.39.17-.72.17-.99,0-.32-.04-.57-.13-.76s-.21-.31-.37-.37c-.16-.06-.34-.09-.53-.09-.22,0-.43,0-.63.02-.2.01-.38.02-.54.04-.16.01-.31.02-.46.02-.39,0-.76-.12-1.09-.35s-.59-.63-.77-1.18-.28-1.33-.28-2.34c0-1.48.17-2.69.52-3.65.34-.96.94-1.71,1.79-2.25s2.01-.92,3.48-1.14c1.47-.22,3.37-.33,5.68-.33s4.21.11,5.7.33c1.49.22,2.65.6,3.48,1.14.83.54,1.42,1.29,1.77,2.25.34.96.52,2.17.52,3.65,0,1.01-.1,1.79-.29,2.34-.2.55-.45.95-.76,1.18s-.66.35-1.05.35c-.15,0-.31,0-.5-.02-.18-.01-.36-.02-.53-.04-.17-.01-.38-.02-.63-.02-.22,0-.41.03-.55.09-.15.06-.26.19-.35.37s-.13.44-.13.76Z"/>
      <path class="cls-1" d="m79.3,6.63c0,1.01-.16,1.82-.48,2.43-.32.62-.83,1.1-1.53,1.46-.7.36-1.63.66-2.78.9-.25.05-.45.15-.63.3-.17.15-.26.31-.26.48,0,.25.11.42.33.52.22.1.52.15.88.15h.65c.21,0,.42,0,.63-.02.21-.01.45-.02.72-.02.91,0,1.66.26,2.27.79s1.06,1.24,1.38,2.12c.32.88.48,1.83.48,2.84,0,1.99-.53,3.43-1.58,4.33-1.06.9-2.79,1.35-5.2,1.35-1.52,0-2.83-.18-3.91-.53-1.08-.36-1.91-.93-2.47-1.73-.57-.8-.84-1.86-.81-3.19.02-.84.01-1.54-.04-2.1-.05-.57-.14-1-.28-1.31-.14-.31-.3-.52-.5-.65-.2-.12-.44-.18-.74-.18-.39,0-.67.09-.83.28-.16.18-.24.45-.24.79,0,.42.04.8.11,1.14.07.34.15.67.24.99.09.32.16.68.22,1.07.06.39.09.85.09,1.36,0,1.25-.49,2.25-1.47,3-.98.75-2.36,1.12-4.13,1.12-2.51,0-4.41-.36-5.71-1.09s-2.15-1.97-2.54-3.74c-.15-.61-.26-1.25-.33-1.92-.07-.67-.12-1.33-.13-1.99s0-1.33.04-1.99c.04-.66.09-1.3.17-1.92.07-.64.17-1.29.29-1.96.12-.66.25-1.33.39-1.99.13-.66.3-1.31.5-1.95s.42-1.25.66-1.84c.39-1.03,1-1.84,1.82-2.42.82-.58,1.99-.98,3.5-1.2,1.51-.22,3.49-.33,5.95-.33,3.76,0,6.75.25,8.98.74,2.22.49,3.83,1.24,4.81,2.23.98,1,1.47,2.22,1.47,3.67Zm-16.22,1.66c0,.34.05.63.17.85s.3.38.55.46c.26.09.61.13,1.05.13.71,0,1.27-.05,1.68-.15s.7-.24.88-.42c.18-.18.28-.44.28-.76,0-.52-.25-.88-.74-1.09-.49-.21-1.33-.31-2.51-.31-.32,0-.58.03-.79.09-.21.06-.36.18-.44.35-.09.17-.13.45-.13.85Z"/>
      <path class="cls-1" d="m94.75,24.29c-2.48,0-4.51-.09-6.08-.26-1.57-.17-2.8-.44-3.69-.81-.88-.37-1.54-.86-1.95-1.47-.42-.61-.73-1.35-.92-2.21-.12-.64-.21-1.28-.26-1.94-.05-.65-.09-1.31-.11-1.99-.03-.68-.01-1.35.04-2.01.05-.66.11-1.3.18-1.92.07-.64.17-1.29.28-1.96.11-.66.23-1.33.37-1.99.13-.66.29-1.31.48-1.95.18-.64.39-1.27.61-1.88.29-.74.63-1.36,1.01-1.86s.93-.9,1.66-1.2c.72-.3,1.72-.51,2.99-.65,1.27-.13,2.87-.2,4.81-.2,2.73,0,4.86.05,6.4.15,1.54.1,2.67.29,3.41.57.74.28,1.21.68,1.42,1.18.21.5.31,1.14.31,1.9,0,.71-.08,1.3-.24,1.77s-.4.82-.72,1.07c-.32.25-.75.37-1.29.37-.88-.02-1.64-.08-2.25-.17-.61-.09-1.2-.17-1.77-.26-.57-.09-1.22-.13-1.95-.13-.25,0-.46.03-.65.09-.18.06-.33.16-.44.3-.11.14-.17.34-.17.61,0,.25.09.45.28.61.18.16.49.24.9.24.59,0,1.12-.02,1.6-.06.48-.04.94-.09,1.38-.16s.88-.13,1.33-.17c.44-.04.92-.05,1.44-.05.74,0,1.26.21,1.57.63.31.42.46,1.09.46,2.03,0,.71-.16,1.29-.48,1.73-.32.44-.86.67-1.62.67-.44,0-.87-.01-1.29-.04-.42-.02-.86-.05-1.33-.07-.47-.02-.95-.05-1.46-.07-.5-.02-1.05-.04-1.64-.04-.42,0-.72.08-.9.24-.18.16-.28.38-.28.65,0,.2.05.36.15.5.1.13.23.23.41.27.17.05.36.07.55.07.79,0,1.49-.04,2.12-.13.63-.09,1.31-.18,2.05-.28.74-.1,1.65-.15,2.73-.15.66,0,1.22.13,1.66.41.44.27.78.72,1.01,1.36.23.64.35,1.53.35,2.65,0,1.23-.15,2.24-.46,3.02s-.88,1.39-1.73,1.81c-.85.42-2.1.72-3.74.9-1.65.18-3.82.28-6.52.28Z"/>
      <path class="cls-1" d="m120.62,24.29c-2.48,0-4.51-.09-6.08-.26-1.57-.17-2.8-.44-3.69-.81-.88-.37-1.54-.86-1.95-1.47-.42-.61-.73-1.35-.92-2.21-.12-.64-.21-1.28-.26-1.94-.05-.65-.09-1.31-.11-1.99-.03-.68-.01-1.35.04-2.01.05-.66.11-1.3.18-1.92.07-.64.17-1.29.28-1.96.11-.66.23-1.33.37-1.99.13-.66.29-1.31.48-1.95.18-.64.39-1.27.61-1.88.29-.74.63-1.36,1.01-1.86s.93-.9,1.66-1.2c.72-.3,1.72-.51,2.99-.65,1.27-.13,2.87-.2,4.81-.2,2.73,0,4.86.05,6.4.15,1.54.1,2.67.29,3.41.57.74.28,1.21.68,1.42,1.18.21.5.31,1.14.31,1.9,0,.71-.08,1.3-.24,1.77s-.4.82-.72,1.07c-.32.25-.75.37-1.29.37-.88-.02-1.64-.08-2.25-.17-.61-.09-1.2-.17-1.77-.26-.57-.09-1.22-.13-1.95-.13-.25,0-.46.03-.65.09-.18.06-.33.16-.44.3-.11.14-.17.34-.17.61,0,.25.09.45.28.61.18.16.49.24.9.24.59,0,1.12-.02,1.6-.06.48-.04.94-.09,1.38-.16s.88-.13,1.33-.17c.44-.04.92-.05,1.44-.05.74,0,1.26.21,1.57.63.31.42.46,1.09.46,2.03,0,.71-.16,1.29-.48,1.73-.32.44-.86.67-1.62.67-.44,0-.87-.01-1.29-.04-.42-.02-.86-.05-1.33-.07-.47-.02-.95-.05-1.46-.07-.5-.02-1.05-.04-1.64-.04-.42,0-.72.08-.9.24-.18.16-.28.38-.28.65,0,.2.05.36.15.5.1.13.23.23.41.27.17.05.36.07.55.07.79,0,1.49-.04,2.12-.13.63-.09,1.31-.18,2.05-.28.74-.1,1.65-.15,2.73-.15.66,0,1.22.13,1.66.41.44.27.78.72,1.01,1.36.23.64.35,1.53.35,2.65,0,1.23-.15,2.24-.46,3.02s-.88,1.39-1.73,1.81c-.85.42-2.1.72-3.74.9-1.65.18-3.82.28-6.52.28Z"/>
      <path class="cls-1" d="m151.7,12.5c0,.27.05.6.17.99.11.39.24.85.39,1.36.15.52.29,1.03.44,1.55.15.52.27,1.03.37,1.53.1.5.15.98.15,1.42,0,.86-.17,1.6-.52,2.23-.34.63-.87,1.14-1.57,1.55-.7.41-1.55.7-2.56.88-1.01.18-2.19.28-3.54.28s-2.5-.1-3.52-.3c-1.02-.2-1.87-.49-2.56-.88-.69-.39-1.21-.9-1.57-1.53-.36-.63-.54-1.37-.54-2.23,0-.44.05-.92.15-1.42.1-.5.22-1.01.37-1.53s.29-1.03.44-1.55c.15-.52.28-.97.39-1.36.11-.39.17-.72.17-.99,0-.32-.04-.57-.13-.76s-.21-.31-.37-.37c-.16-.06-.34-.09-.53-.09-.22,0-.43,0-.63.02-.2.01-.38.02-.54.04-.16.01-.31.02-.46.02-.39,0-.76-.12-1.09-.35s-.59-.63-.77-1.18-.28-1.33-.28-2.34c0-1.48.17-2.69.52-3.65.34-.96.94-1.71,1.79-2.25s2.01-.92,3.48-1.14c1.47-.22,3.37-.33,5.68-.33s4.21.11,5.7.33c1.49.22,2.65.6,3.48,1.14.83.54,1.42,1.29,1.77,2.25.34.96.52,2.17.52,3.65,0,1.01-.1,1.79-.29,2.34-.2.55-.45.95-.76,1.18s-.66.35-1.05.35c-.15,0-.31,0-.5-.02-.18-.01-.36-.02-.53-.04-.17-.01-.38-.02-.63-.02-.22,0-.41.03-.55.09-.15.06-.26.19-.35.37s-.13.44-.13.76Z"/>
      <path class="cls-1" d="m27.99,32.71c4.74,0,8.72.42,11.93,1.27s5.8,2.15,7.76,3.93,3.46,4.09,4.52,6.94c1.05,2.85,1.78,6.3,2.19,10.36.27,1.19.51,2.32.72,3.39.21,1.07.37,2.09.48,3.04.11.96.2,1.89.27,2.81.07.91.08,1.8.04,2.67-.05.86-.14,1.75-.27,2.66-.27,1.73-.89,3.22-1.85,4.45-.96,1.23-2.44,2.14-4.45,2.73-2.01.59-4.65.89-7.93.89-2.83,0-5.13-.32-6.91-.96-1.78-.64-3.04-1.53-3.79-2.67s-1.13-2.44-1.13-3.9c0-.86.01-1.62.03-2.26s.06-1.21.1-1.71c.05-.5.09-.96.14-1.37.05-.41.09-.83.14-1.27.05-.43.07-.88.07-1.33,0-.5-.06-.95-.17-1.33-.11-.39-.32-.69-.62-.89-.3-.21-.72-.31-1.27-.31s-.98.1-1.3.31c-.32.2-.54.5-.65.89-.11.39-.17.83-.17,1.33,0,.46.01.9.04,1.33.02.44.06.86.1,1.27.05.41.09.87.14,1.37.05.5.08,1.07.1,1.71s.04,1.39.04,2.26c0,1.46-.37,2.76-1.09,3.9s-1.96,2.03-3.69,2.67c-1.73.64-4.06.96-6.98.96-3.28,0-5.93-.3-7.93-.89-2.01-.59-3.49-1.5-4.44-2.73s-1.57-2.71-1.85-4.45c-.09-.91-.17-1.8-.24-2.66-.07-.87-.07-1.76,0-2.67.07-.91.16-1.85.27-2.81.11-.96.27-1.97.48-3.04.21-1.07.44-2.2.72-3.39.46-4.06,1.21-7.51,2.26-10.36,1.05-2.85,2.56-5.16,4.55-6.94,1.98-1.78,4.57-3.09,7.76-3.93,3.19-.84,7.16-1.27,11.9-1.27Zm0,17.44c1.78,0,2.93-.1,3.45-.31.52-.2.79-.74.79-1.61,0-.96-.37-1.6-1.09-1.92-.73-.32-1.78-.48-3.15-.48s-2.42.16-3.15.48c-.73.32-1.09.96-1.09,1.92,0,.86.26,1.4.79,1.61.52.2,1.67.31,3.45.31Z"/>
      <path class="cls-1" d="m110.95,45.16c0,1.87-.3,3.37-.89,4.51-.59,1.14-1.54,2.04-2.84,2.7-1.3.66-3.02,1.22-5.16,1.67-.46.09-.84.27-1.16.55-.32.27-.48.57-.48.89,0,.46.21.78.62.96.41.18.96.27,1.64.27h1.2c.39,0,.78-.01,1.16-.04.39-.02.83-.03,1.33-.03,1.69,0,3.09.49,4.21,1.47s1.97,2.29,2.57,3.93c.59,1.64.89,3.4.89,5.27,0,3.69-.98,6.37-2.94,8.04-1.96,1.67-5.17,2.5-9.64,2.5-2.83,0-5.24-.33-7.25-.99-2.01-.66-3.53-1.73-4.58-3.21-1.05-1.48-1.55-3.46-1.5-5.92.04-1.55.02-2.85-.07-3.9-.09-1.05-.26-1.86-.51-2.43-.25-.57-.56-.97-.92-1.2-.37-.22-.82-.34-1.37-.34-.73,0-1.24.17-1.54.51-.3.34-.44.83-.44,1.47,0,.78.07,1.48.21,2.12.14.64.28,1.25.44,1.85.16.59.3,1.25.41,1.98.11.73.17,1.57.17,2.53,0,2.32-.91,4.18-2.73,5.57-1.82,1.39-4.38,2.08-7.66,2.08-4.65,0-8.18-.67-10.6-2.02s-3.99-3.66-4.72-6.94c-.27-1.14-.48-2.32-.62-3.55-.14-1.23-.22-2.46-.24-3.69s0-2.46.07-3.69c.07-1.23.17-2.41.31-3.55.14-1.19.32-2.39.55-3.63.23-1.23.47-2.46.72-3.69.25-1.23.56-2.44.92-3.62s.78-2.33,1.23-3.42c.73-1.92,1.86-3.41,3.39-4.48,1.53-1.07,3.69-1.81,6.5-2.22,2.8-.41,6.48-.62,11.04-.62,6.98,0,12.53.46,16.65,1.37,4.13.91,7.1,2.29,8.92,4.14,1.82,1.85,2.73,4.12,2.73,6.81Zm-30.09,3.08c0,.64.1,1.16.31,1.57s.55.7,1.03.85c.48.16,1.13.24,1.95.24,1.32,0,2.36-.09,3.11-.27s1.3-.45,1.64-.79c.34-.34.51-.81.51-1.4,0-.96-.46-1.63-1.37-2.02-.91-.39-2.46-.58-4.65-.58-.59,0-1.08.06-1.47.17-.39.12-.66.33-.82.65-.16.32-.24.84-.24,1.57Z"/>
      <path class="cls-1" d="m147.26,56.03c0,.5.1,1.12.31,1.85.21.73.44,1.57.72,2.53.27.96.55,1.92.82,2.87.27.96.5,1.91.69,2.84.18.94.27,1.81.27,2.63,0,1.6-.32,2.98-.96,4.14-.64,1.16-1.61,2.12-2.91,2.87-1.3.75-2.88,1.3-4.75,1.64-1.87.34-4.06.51-6.56.51s-4.64-.18-6.53-.55c-1.89-.37-3.48-.91-4.75-1.64-1.28-.73-2.25-1.68-2.91-2.84-.66-1.16-.99-2.54-.99-4.14,0-.82.09-1.7.27-2.63.18-.93.41-1.88.68-2.84s.55-1.92.82-2.87c.27-.96.51-1.8.72-2.53.2-.73.31-1.34.31-1.85,0-.59-.08-1.06-.24-1.4s-.39-.57-.68-.69c-.3-.11-.63-.17-.99-.17-.41,0-.8.01-1.16.03-.37.02-.7.05-.99.07-.3.02-.58.04-.85.04-.73,0-1.4-.22-2.02-.65s-1.09-1.16-1.44-2.19-.51-2.47-.51-4.34c0-2.74.32-4.99.96-6.77.64-1.78,1.74-3.17,3.32-4.17,1.57-1,3.73-1.71,6.46-2.12,2.74-.41,6.25-.62,10.53-.62s7.81.21,10.57.62c2.76.41,4.91,1.12,6.46,2.12,1.55,1,2.64,2.39,3.28,4.17.64,1.78.96,4.04.96,6.77,0,1.87-.18,3.31-.55,4.34-.37,1.03-.83,1.76-1.4,2.19s-1.22.65-1.95.65c-.27,0-.58-.01-.92-.04-.34-.02-.67-.05-.99-.07-.32-.02-.71-.03-1.16-.03-.41,0-.75.06-1.02.17-.27.12-.49.34-.65.69s-.24.81-.24,1.4Z"/>
    </g>
  </g>
</svg>